<?xml version="1.0" standalone="no"?>
<!DOCTYPE svg PUBLIC "-//W3C//DTD SVG 20010904//EN"
 "http://www.w3.org/TR/2001/REC-SVG-20010904/DTD/svg10.dtd">
<svg version="1.0" xmlns="http://www.w3.org/2000/svg"
 width="4580.000000pt" height="884.000000pt" viewBox="0 0 4580.000000 884.000000"
 preserveAspectRatio="xMidYMid meet">
<metadata>
Created by potrace 1.16, written by Peter Selinger 2001-2019
</metadata>
<g transform="translate(0.000000,884.000000) scale(0.100000,-0.100000)"
fill="#000000" stroke="none">
<path d="M36635 6763 c-31 -8 -35 -21 -35 -135 0 -88 3 -108 14 -108 8 0 18 5
21 10 3 6 19 10 35 10 21 0 37 -10 59 -37 18 -22 40 -38 53 -38 29 -2 68 -26
68 -43 0 -22 38 -89 55 -95 18 -7 45 1 45 14 0 13 -93 104 -114 112 -9 4 -14
12 -11 17 4 6 3 9 -2 8 -5 -2 -30 17 -57 42 -26 25 -57 50 -69 57 -12 6 -21
15 -20 20 0 4 -3 16 -9 26 -9 17 -1 64 9 53 3 -3 14 5 23 17 16 19 26 22 77
19 32 -2 199 -4 371 -5 l314 -2 34 -37 34 -38 -1 -1500 c-1 -1212 1 -1503 12
-1516 30 -36 60 -40 275 -39 203 1 212 2 243 24 18 13 30 26 27 29 -8 7 -351
5 -416 -3 -51 -6 -57 -5 -79 19 -24 25 -24 28 -11 69 12 35 15 276 17 1508 2
807 0 1484 -5 1505 l-8 39 -464 1 c-256 1 -474 0 -485 -3z"/>
<path d="M40910 6763 c-8 -3 -18 -11 -22 -17 -10 -15 -10 -233 0 -240 4 -2 18
2 32 10 22 12 23 13 5 14 -18 1 -19 2 -3 13 9 8 16 22 14 32 -3 23 26 85 53
109 19 17 44 18 380 19 273 1 366 -2 384 -12 31 -17 58 -63 57 -98 -1 -15 -4
-408 -7 -873 -4 -465 -7 -873 -7 -906 -1 -48 3 -67 18 -83 34 -37 109 -22 135
28 9 15 6 17 -20 13 -35 -5 -85 14 -93 35 -3 8 5 35 19 61 l25 47 -1 900 c-1
495 -4 911 -8 925 l-7 25 -469 2 c-259 1 -477 -1 -485 -4z"/>
<path d="M38531 6637 c6 -10 58 -67 115 -125 91 -94 104 -103 99 -77 -3 17 -8
65 -12 108 l-6 77 -51 0 c-28 1 -74 9 -103 19 -51 17 -52 17 -42 -2z"/>
<path d="M38026 6477 c-8 -68 -8 -277 1 -345 6 -52 7 -53 32 -46 14 4 34 6 44
6 16 -1 93 -45 125 -72 19 -17 14 -57 -10 -74 -12 -9 -19 -18 -16 -21 3 -3 92
-4 199 -3 l194 3 -22 22 c-12 12 -20 23 -18 25 7 6 -36 9 -130 9 -49 -1 -101
4 -115 11 -14 6 -70 58 -125 115 l-100 104 3 67 c6 161 7 210 1 206 -4 -2 -18
7 -31 21 l-25 25 -7 -53z"/>
<path d="M2580 6481 c-30 -3 -61 -10 -67 -14 -9 -6 -13 -42 -13 -125 l1 -117
18 35 c11 19 17 39 13 45 -3 5 -2 7 3 3 10 -9 38 28 31 41 -7 10 41 53 74 66
16 6 235 8 620 5 327 -3 861 -3 1185 0 427 4 599 2 621 -6 29 -11 78 -65 79
-89 3 -35 19 -84 26 -79 5 3 9 2 8 -3 -4 -21 15 -73 23 -65 15 15 6 278 -10
294 -10 11 -257 13 -1285 14 -700 1 -1297 -1 -1327 -5z"/>
<path d="M34808 6483 c-14 -3 -12 -9 14 -32 26 -23 29 -30 20 -48 -6 -11 -37
-31 -69 -44 -46 -19 -73 -23 -129 -22 l-71 3 16 -34 c9 -18 17 -30 19 -26 1 4
25 3 52 -3 69 -13 94 -4 141 55 81 103 32 95 574 95 486 0 505 2 505 38 0 7
-7 16 -16 19 -18 7 -1030 6 -1056 -1z"/>
<path d="M36193 6480 c-21 -9 -23 -16 -23 -83 0 -107 11 -111 89 -30 l63 65
80 -5 79 -5 -3 26 c-2 18 -11 28 -28 33 -37 10 -231 9 -257 -1z"/>
<path d="M36558 6464 c-4 -3 -1 -25 6 -47 9 -31 12 -174 11 -534 0 -271 2
-493 6 -493 13 0 19 147 18 470 -2 510 -10 635 -41 604z"/>
<path d="M17683 6343 c-52 -4 -53 -4 -52 -36 1 -18 3 -24 6 -15 4 16 6 16 29
2 19 -13 56 -16 204 -16 164 0 182 -2 205 -20 52 -41 53 -51 45 -338 -8 -285
-5 -305 43 -332 16 -9 98 -13 317 -13 l296 0 -1 25 0 25 -286 0 c-323 1 -326
1 -314 64 12 61 17 633 6 644 -11 11 -398 19 -498 10z"/>
<path d="M35138 6236 c-44 -32 -37 -48 16 -36 17 4 124 5 238 2 213 -5 261 -1
252 21 -13 35 -46 41 -258 41 l-209 1 -39 -29z"/>
<path d="M36891 6221 c-8 -14 -10 -376 -9 -1238 l3 -1218 33 -2 c34 -1 38 3
21 27 -9 12 -10 11 -4 -5 3 -11 3 -16 -2 -12 -4 5 -8 34 -9 65 -2 34 1 49 5
38 7 -18 8 -18 14 5 9 32 9 2186 0 2218 -6 23 -7 23 -13 5 -4 -10 -7 13 -6 53
1 39 5 69 9 66 4 -2 5 -14 1 -26 -6 -21 -5 -21 11 1 20 27 19 28 -17 37 -20 5
-29 2 -37 -14z m46 -1778 c-1 -302 -2 -55 -2 547 0 602 1 849 2 548 2 -302 2
-794 0 -1095z"/>
<path d="M41177 6233 c-4 -3 -7 -561 -7 -1239 0 -1054 2 -1233 14 -1237 8 -3
17 0 19 7 3 8 6 530 7 1162 0 631 3 1150 6 1153 2 3 3 -495 2 -1107 -2 -611 0
-1104 4 -1094 9 22 10 2189 1 2221 -6 23 -7 23 -14 5 -4 -10 -6 13 -5 53 0 39
5 69 9 66 4 -2 5 -14 1 -26 -6 -22 -6 -22 9 -2 13 17 13 21 -2 32 -18 14 -34
16 -44 6z"/>
<path d="M17482 5963 c3 -189 5 -208 21 -211 15 -3 17 6 17 85 1 48 5 108 9
132 5 24 5 58 0 75 -8 29 -7 30 6 12 8 -11 15 -16 15 -10 -1 17 -27 44 -35 36
-5 -4 -5 1 -2 10 6 18 -13 78 -25 78 -5 0 -7 -93 -6 -207z"/>
<path d="M3062 6129 c-10 -4 -31 -22 -46 -40 -26 -30 -27 -37 -22 -98 3 -36 6
-80 6 -97 1 -23 6 -31 18 -30 11 1 17 -6 17 -19 1 -31 15 -66 26 -60 18 12 10
134 -11 176 -25 47 -20 71 21 100 23 16 38 20 67 14 20 -3 80 -9 133 -12 76
-4 103 -1 127 11 17 9 39 16 50 16 26 0 64 -44 62 -72 -1 -13 -4 -526 -6
-1141 l-4 -1117 22 -30 c18 -25 20 -34 10 -54 -6 -14 -25 -32 -43 -41 -27 -15
-40 -15 -94 -5 -75 14 -304 -2 -317 -23 -11 -17 -10 -219 2 -237 8 -13 107
-15 775 -18 l765 -3 10 26 c13 33 13 196 1 228 -9 23 -14 24 -134 31 -84 5
-147 3 -191 -5 -62 -12 -68 -11 -94 8 -33 24 -39 61 -17 103 14 27 16 144 15
1174 -2 1142 0 1186 31 1186 6 0 7 5 4 10 -6 10 59 -23 82 -42 13 -10 182 -5
241 7 28 6 41 2 88 -30 29 -20 51 -42 47 -48 -3 -5 -1 -7 5 -3 13 8 6 51 -15
87 -31 52 -50 56 -274 53 -219 -2 -244 -7 -270 -56 -6 -12 -10 -440 -10 -1236
l0 -1217 28 -22 c38 -31 71 -35 183 -25 52 5 110 5 129 1 43 -10 89 -53 86
-82 -1 -12 -3 -30 -4 -39 0 -10 -18 -26 -39 -37 -38 -19 -49 -19 -355 -9 -233
9 -399 9 -628 1 -327 -12 -356 -10 -391 30 -23 26 -23 69 0 93 43 47 80 53
245 39 90 -8 122 1 161 44 16 17 19 35 18 84 -4 110 -4 195 -3 1280 2 1052 2
1068 -18 1096 -37 52 -37 52 -260 54 -116 1 -219 -1 -229 -4z"/>
<path d="M35802 6128 c-7 -7 -12 -9 -12 -4 0 4 -7 1 -15 -8 -25 -24 -17 -33
30 -34 62 0 137 -53 200 -139 48 -65 48 -66 37 -109 -7 -25 -12 -77 -11 -117
l0 -72 22 48 c12 27 25 46 28 43 3 -3 6 0 7 6 0 7 6 43 12 80 8 45 8 73 1 85
-5 10 -58 66 -118 125 -90 90 -113 108 -138 108 -17 0 -36 -5 -43 -12z"/>
<path d="M34702 5809 c-46 -45 -50 -68 -28 -167 10 -44 17 -62 25 -58 4 3 7
-3 8 -13 1 -10 8 -33 16 -52 14 -32 15 -23 16 144 1 97 0 177 -2 177 -2 0 -18
-14 -35 -31z"/>
<path d="M9540 5773 l-104 -4 28 -18 c15 -10 26 -22 24 -27 -4 -10 81 -17 227
-17 116 -1 162 9 182 42 11 17 5 19 -85 24 -53 4 -113 6 -132 5 -19 -1 -82 -4
-140 -5z"/>
<path d="M13677 5773 l-99 -4 26 -20 c15 -11 23 -26 19 -34 -3 -8 0 -15 7 -15
6 0 9 4 5 9 -5 10 34 8 135 -4 51 -6 254 4 245 13 -3 3 4 15 15 27 l21 22 -98
6 c-54 4 -116 6 -138 5 -22 -1 -84 -4 -138 -5z"/>
<path d="M16227 5773 l-79 -4 25 -25 c27 -27 75 -36 172 -33 105 3 128 1 153
-15 9 -6 12 -3 10 10 -2 11 9 26 29 39 l32 22 -97 6 c-53 4 -113 6 -132 5 -19
-1 -70 -4 -113 -5z"/>
<path d="M19671 5771 c-97 -6 -102 -7 -78 -20 14 -8 24 -18 21 -23 -3 -4 1 -9
8 -9 7 -1 36 -4 63 -7 66 -6 230 -7 280 0 22 2 54 -1 72 -8 29 -11 31 -11 28
6 -2 12 7 27 23 39 l27 20 -51 1 c-28 0 -104 2 -170 4 -65 2 -166 1 -223 -3z"/>
<path d="M23097 5771 c-94 -6 -97 -7 -77 -23 11 -10 20 -24 20 -32 0 -11 7
-12 27 -7 14 4 49 4 77 0 28 -4 99 -6 157 -4 101 4 109 6 139 33 l31 29 -98 6
c-101 7 -110 7 -276 -2z"/>
<path d="M25645 5771 c-80 -6 -80 -6 -55 -23 13 -10 20 -18 15 -18 -6 0 -4 -4
3 -9 8 -5 39 -9 70 -10 32 -1 66 -3 77 -3 11 0 43 1 70 2 28 1 55 1 60 0 20
-5 48 0 41 7 -4 4 10 17 31 30 l38 23 -40 0 c-22 0 -83 2 -135 4 -52 2 -131 1
-175 -3z"/>
<path d="M31636 5771 c-78 -6 -78 -6 -57 -25 11 -11 21 -26 21 -35 0 -10 3
-12 8 -5 4 7 25 10 47 8 47 -4 130 -4 165 0 36 4 88 -14 94 -33 2 -9 4 -2 3
14 -2 24 5 34 31 51 l32 21 -97 6 c-102 7 -117 7 -247 -2z"/>
<path d="M39968 5773 l-67 -4 17 -29 c15 -26 24 -30 62 -32 120 -5 194 -4 236
2 68 11 103 -5 154 -67 25 -30 57 -64 73 -75 25 -18 32 -18 83 -7 l56 13 126
-127 c120 -120 159 -156 173 -157 4 0 -11 112 -20 149 -1 3 -6 0 -13 -7 -25
-25 -53 -12 -110 52 -62 69 -66 81 -43 112 8 10 15 22 15 26 0 3 -66 8 -147
10 -133 3 -152 5 -185 26 -40 25 -42 49 -5 90 l20 22 -60 0 c-33 0 -113 2
-179 4 -65 2 -149 2 -186 -1z"/>
<path d="M2881 5664 c-33 -36 -33 -39 -27 -104 6 -62 5 -70 -18 -98 -29 -33
-96 -64 -135 -62 -53 4 -61 1 -61 -25 l0 -25 140 0 140 0 1 63 c0 34 2 106 2
160 3 131 -1 138 -42 91z"/>
<path d="M4782 5523 l3 -168 276 0 c291 0 295 -1 320 -47 8 -15 5 -29 -10 -59
-21 -39 -21 -51 -21 -794 0 -415 4 -755 8 -755 8 0 36 59 33 72 0 4 6 5 14 1
12 -4 15 2 14 23 -1 16 0 372 1 791 2 616 0 766 -10 779 -33 38 -66 45 -205
41 -74 -2 -132 0 -129 4 2 4 -27 5 -65 2 -59 -5 -74 -3 -103 15 -50 31 -62 60
-54 130 6 50 4 62 -14 85 -12 15 -30 32 -41 38 -19 10 -19 6 -17 -158z"/>
<path d="M25942 5661 c36 -46 85 -94 104 -101 12 -5 39 -4 64 2 56 14 85 -2
165 -92 33 -38 67 -71 75 -74 8 -4 23 -18 33 -32 18 -24 19 -59 18 -697 -1
-370 -4 -719 -7 -777 l-6 -105 32 -34 c17 -18 34 -30 38 -26 9 8 15 1637 7
1685 l-7 34 -16 -27 c-21 -35 -38 -40 -70 -22 -15 8 -24 14 -20 15 11 0 -21
71 -48 107 -28 37 -30 51 -8 81 21 30 17 31 -146 34 -114 3 -142 6 -178 24
-34 17 -40 18 -30 5z"/>
<path d="M31950 5653 c0 -2 12 -20 27 -39 37 -49 72 -66 114 -54 19 6 43 10
54 10 20 0 227 -194 242 -227 5 -10 6 -364 3 -788 l-5 -770 30 -33 c26 -29 30
-30 37 -15 10 28 10 1703 -1 1703 -5 0 -13 -9 -16 -20 -17 -55 -86 -41 -99 20
-3 17 -20 52 -38 76 -31 44 -32 45 -15 73 9 16 17 32 17 35 0 3 -58 6 -128 6
-82 0 -146 5 -175 14 -26 8 -47 12 -47 9z"/>
<path d="M16090 5639 c-25 -4 -88 -8 -141 -8 -53 -1 -98 -4 -102 -7 -3 -3 -1
-18 4 -34 20 -56 -38 -131 -81 -105 -24 15 -40 71 -30 106 6 19 10 35 10 37 0
2 -213 2 -473 0 -384 -2 -477 -6 -490 -17 -14 -11 -17 -33 -17 -120 0 -58 4
-113 9 -120 8 -12 39 -15 138 -17 70 -1 145 -7 166 -12 45 -12 54 -2 24 25
-40 37 -66 45 -125 39 -39 -4 -70 -2 -97 8 -22 8 -36 15 -32 16 5 0 1 7 -7 16
-20 19 -21 63 -1 90 30 44 62 48 265 34 118 -8 248 -11 348 -7 l160 7 24 -28
c12 -16 38 -50 55 -75 54 -78 87 -65 191 72 22 29 27 31 92 31 64 0 71 2 112
36 50 42 53 44 47 43 -2 -1 -24 -5 -49 -10z"/>
<path d="M16566 5616 c40 -52 73 -68 115 -56 64 19 72 14 194 -107 l117 -118
-6 -80 c-3 -44 -6 -394 -7 -777 l-2 -697 31 -35 30 -34 6 30 c11 54 7 1688 -4
1688 -5 0 -10 -4 -10 -10 0 -5 -11 -17 -25 -26 -23 -15 -27 -15 -49 -1 -13 9
-26 30 -30 47 -3 17 -20 51 -37 75 -30 41 -30 44 -15 73 9 17 16 33 16 36 0 2
-66 6 -147 9 -82 3 -161 8 -177 12 l-29 8 29 -37z"/>
<path d="M20139 5612 c47 -60 61 -66 127 -51 l55 12 217 -216 c149 -150 218
-212 220 -201 2 9 1 41 -3 70 -6 52 -7 53 -31 42 -17 -8 -31 -8 -46 -1 -23 11
-80 107 -92 155 -4 18 -14 28 -33 33 -46 10 -158 79 -162 100 -2 13 8 29 29
46 l32 27 -154 4 c-84 3 -162 9 -173 13 -15 7 -12 -1 14 -33z"/>
<path d="M22977 5643 c-4 -3 -80 -9 -169 -12 -131 -6 -158 -9 -138 -18 67 -29
62 -84 -9 -103 -26 -7 -52 -24 -75 -51 -19 -23 -51 -52 -70 -65 -26 -18 -41
-40 -57 -85 -26 -72 -54 -91 -93 -66 -22 15 -25 15 -30 1 -3 -9 -6 -37 -6 -62
l1 -47 33 38 c18 20 36 37 40 37 4 0 20 15 37 33 17 17 97 99 177 180 160 162
142 152 238 132 27 -6 37 -1 85 44 30 27 51 50 48 51 -3 0 -9 -3 -12 -7z"/>
<path d="M31500 5639 c-25 -4 -90 -8 -146 -8 l-101 -1 5 -54 c4 -45 1 -57 -17
-75 -28 -28 -57 -27 -77 4 -19 29 -23 68 -10 103 l8 23 -475 -3 c-383 -2 -477
-6 -490 -17 -14 -11 -17 -33 -17 -120 0 -58 4 -113 10 -121 7 -11 37 -15 132
-16 68 -2 142 -7 166 -12 50 -11 60 -3 29 25 -41 38 -67 46 -129 39 -55 -7
-138 8 -124 21 3 3 -1 12 -9 20 -20 20 -19 66 3 89 38 42 64 48 184 38 62 -5
220 -9 351 -9 l239 0 21 -26 c12 -14 37 -47 54 -72 52 -75 72 -69 184 61 35
41 37 42 99 42 57 0 67 3 111 37 40 30 60 49 47 42 -2 -1 -23 -5 -48 -10z"/>
<path d="M5163 5627 c-2 -4 -9 -5 -14 -2 -5 3 -6 0 -3 -8 10 -27 77 -48 150
-48 245 3 622 -7 642 -18 56 -30 54 16 53 -933 0 -480 -3 -891 -6 -913 -7 -47
16 -98 56 -128 29 -21 56 -23 199 -16 90 5 97 7 142 41 26 20 45 38 42 40 -2
3 -28 1 -57 -4 -28 -4 -81 -8 -117 -7 -36 0 -88 -2 -116 -6 -48 -7 -52 -6 -73
21 -18 23 -21 35 -15 59 4 16 9 454 11 973 3 751 1 943 -9 947 -23 8 -880 10
-885 2z"/>
<path d="M9225 5630 l-130 -5 37 -22 c53 -31 44 -63 -27 -93 -63 -27 -191
-157 -205 -208 -11 -43 -33 -72 -53 -72 -7 0 -23 7 -35 16 -13 9 -25 14 -28
12 -7 -7 -9 -96 -3 -103 4 -3 102 90 219 206 197 195 215 210 241 205 16 -3
42 -9 58 -12 26 -5 37 0 78 40 l48 46 -35 -2 c-19 -1 -93 -5 -165 -8z"/>
<path d="M13365 5630 c-120 -5 -128 -6 -103 -19 56 -29 48 -82 -14 -100 -60
-18 -202 -162 -212 -214 -14 -74 -88 -84 -104 -14 -6 29 -7 26 -13 -28 -9 -79
-9 -157 -1 -128 8 25 31 49 262 277 186 184 163 170 258 150 22 -4 36 1 60 21
18 15 37 36 43 46 8 17 6 19 -18 17 -15 -1 -86 -5 -158 -8z"/>
<path d="M17340 5630 c-139 -5 -145 -6 -146 -26 -1 -21 4 -22 136 -29 141 -7
160 -4 203 33 20 18 6 33 -28 30 -11 -1 -85 -5 -165 -8z"/>
<path d="M19353 5633 c-73 -2 -133 -6 -133 -9 0 -3 12 -15 26 -28 38 -32 26
-55 -61 -110 -61 -39 -84 -61 -127 -124 -60 -86 -84 -98 -124 -61 l-24 22 0
-44 c0 -24 -3 -61 -6 -81 -5 -31 -4 -38 10 -38 8 0 108 93 222 206 192 192
208 206 235 200 16 -3 42 -9 58 -12 26 -5 37 0 78 40 l48 46 -35 -2 c-19 -1
-95 -4 -167 -5z"/>
<path d="M25374 5633 l-111 -4 5 -53 c4 -45 1 -57 -17 -75 -29 -29 -55 -26
-81 7 -18 22 -21 35 -16 75 l7 47 -433 -1 c-238 0 -455 -4 -483 -7 l-50 -7 -3
-119 c-2 -76 1 -123 8 -130 6 -6 60 -12 128 -13 64 -1 138 -5 165 -9 41 -6 47
-5 41 9 -3 9 -21 26 -40 38 -30 18 -43 20 -109 14 -58 -6 -75 -4 -75 5 0 8 -3
10 -7 7 -3 -4 -12 1 -20 11 -8 9 -12 11 -8 5 3 -7 3 -13 0 -13 -3 0 -13 16
-20 35 -12 27 -12 40 -3 60 6 14 15 25 20 25 5 0 6 5 3 10 -3 6 3 10 14 10 11
0 23 5 27 11 5 9 38 10 123 3 64 -5 222 -9 351 -10 129 -1 240 -2 246 -3 6 0
35 -32 63 -71 72 -99 92 -96 194 33 l39 47 64 -1 c55 -1 69 2 99 25 40 31 45
47 13 44 -13 -1 -73 -4 -134 -5z"/>
<path d="M6349 5604 c-5 -15 -7 -29 -4 -32 3 -3 5 -1 5 4 0 11 39 10 195 -6
63 -7 230 -10 392 -8 299 3 302 4 288 49 -6 18 -26 19 -436 19 l-429 0 -11
-26z"/>
<path d="M10626 5618 c-11 -35 -2 -43 48 -45 249 -12 604 -13 752 -3 94 7 182
10 197 6 39 -9 77 -52 77 -86 0 -29 -38 -78 -63 -82 -7 -1 -47 -2 -89 -2 -74
-1 -79 -2 -110 -35 l-33 -33 60 7 c33 4 114 7 180 8 l120 2 3 125 c2 109 0
126 -15 137 -25 19 -1122 19 -1127 1z"/>
<path d="M11922 5613 c-9 -24 -9 -223 1 -247 7 -18 16 -19 131 -13 110 5 126
4 154 -14 37 -22 40 -41 12 -87 -20 -33 -28 -102 -11 -102 23 0 71 63 72 93 3
81 -12 120 -58 148 -29 18 -43 20 -98 14 -52 -5 -70 -3 -94 11 -60 35 -60 102
-1 144 31 22 36 22 153 14 153 -11 455 -11 523 0 45 7 57 5 93 -15 26 -14 40
-28 36 -37 -2 -7 -1 -11 4 -8 5 3 8 -5 7 -18 0 -13 -4 -22 -7 -20 -4 2 -10 -7
-13 -21 -4 -14 -12 -25 -19 -25 -6 -1 -29 -16 -50 -35 -46 -40 -38 -45 73 -40
l75 3 0 128 0 129 -30 6 c-16 4 -236 7 -488 8 -427 1 -458 0 -465 -16z"/>
<path d="M27760 5611 c-11 -21 -14 -201 -3 -240 l6 -24 129 7 c128 6 129 6
153 -18 28 -29 32 -62 10 -93 -13 -19 -15 -119 -13 -790 3 -715 4 -765 19
-723 9 25 22 45 30 45 12 0 14 106 16 720 1 396 4 748 5 783 3 62 2 64 -36 99
-38 35 -38 35 -107 29 -60 -6 -74 -4 -103 14 -59 36 -58 105 1 141 33 21 42
21 142 13 58 -5 216 -9 351 -9 217 -1 248 -3 272 -18 55 -37 54 -6 48 -992 -5
-821 -4 -912 10 -934 28 -43 65 -63 111 -63 202 1 226 6 289 63 l35 31 -30 -7
c-16 -5 -73 -10 -125 -11 -52 -2 -120 -6 -151 -10 -54 -6 -58 -5 -74 20 -13
19 -15 35 -10 63 14 65 17 1894 4 1909 -9 12 -98 14 -490 14 -463 0 -479 -1
-489 -19z"/>
<path d="M29039 5628 c-1 -2 -2 -14 -3 -28 -2 -30 -38 -27 512 -33 l363 -4 -3
31 -3 31 -432 3 c-238 1 -434 1 -434 0z"/>
<path d="M37805 5623 c-22 -2 -46 -11 -52 -20 -15 -20 -18 -210 -4 -232 8 -12
39 -15 138 -17 70 -1 145 -7 166 -12 45 -12 54 -2 24 25 -41 37 -66 45 -123
38 -64 -8 -117 7 -139 38 -19 27 -19 61 0 80 8 8 12 17 9 20 -3 2 12 12 33 22
32 16 51 17 142 9 59 -5 217 -9 353 -9 l247 0 26 -25 c15 -14 31 -33 37 -43
10 -19 12 -1464 2 -1622 l-6 -90 32 -34 c17 -18 34 -30 38 -26 8 8 15 1849 7
1883 l-5 22 -443 -2 c-243 -1 -460 -3 -482 -5z"/>
<path d="M42085 5623 c-22 -2 -46 -11 -52 -20 -15 -20 -18 -210 -4 -232 12
-18 287 -30 317 -13 16 9 15 12 -17 31 -29 19 -43 21 -95 16 -65 -7 -106 5
-136 39 -27 28 -21 94 8 99 5 1 8 5 7 9 -2 4 15 13 38 19 31 10 71 10 182 1
181 -16 506 -15 595 0 79 13 122 2 149 -38 24 -38 8 -74 -59 -129 l-61 -50 88
-3 c49 -2 95 0 102 2 11 4 13 34 11 138 l-3 133 -515 1 c-283 0 -533 -1 -555
-3z"/>
<path d="M30016 5524 c-9 -66 -5 -1603 4 -1639 4 -16 8 356 9 828 0 471 -1
857 -3 857 -2 0 -6 -21 -10 -46z"/>
<path d="M7331 4717 c-1 -563 2 -846 9 -842 12 7 12 1627 0 1665 -4 14 -8
-357 -9 -823z"/>
<path d="M14600 5421 c-18 -44 -34 -55 -60 -41 -19 10 -20 10 -8 -9 7 -12 16
-21 21 -21 4 0 5 -33 1 -72 l-6 -73 40 -39 40 -38 -5 158 c-3 88 -7 160 -8
162 -1 1 -8 -11 -15 -27z"/>
<path d="M24022 5430 c-21 -47 -39 -62 -64 -55 -22 7 -22 7 -7 -11 25 -29 28
-48 18 -93 -11 -48 -2 -69 45 -116 l32 -30 -4 150 c-3 178 -5 189 -20 155z"/>
<path d="M33891 4905 c0 -477 1 -538 14 -520 8 11 23 29 33 40 18 19 19 46 19
473 0 405 -2 452 -16 450 -8 -2 -16 2 -17 7 0 6 -5 21 -11 35 -6 14 -13 32
-16 40 -3 8 -6 -228 -6 -525z"/>
<path d="M40185 5425 c-61 -13 -78 -13 -218 0 l-77 7 -46 -46 c-49 -49 -48
-42 -28 -137 3 -15 17 -32 30 -38 35 -16 40 -14 19 9 -10 11 -22 17 -26 14
-18 -11 -8 44 14 77 32 48 70 64 117 50 21 -6 77 -11 125 -11 72 0 91 3 112
20 33 25 65 25 88 0 15 -17 16 -23 5 -50 -16 -38 -46 -60 -81 -60 -51 0 -60
-33 -50 -185 l7 -110 17 39 c9 21 14 43 10 49 -3 5 -1 7 4 4 15 -9 26 23 13
38 -9 11 -8 23 6 87 4 19 26 42 70 74 70 50 89 79 74 118 -20 55 -88 73 -185
51z"/>
<path d="M9473 5408 c-30 -22 -63 -66 -63 -85 0 -4 4 -14 8 -21 7 -9 19 -4 48
23 46 43 76 52 119 36 42 -15 60 -14 95 4 27 14 33 14 67 -3 43 -22 90 -22 85
-1 -11 43 -78 75 -125 60 -18 -6 -43 -9 -57 -7 -132 18 -144 18 -177 -6z"/>
<path d="M13615 5411 c-39 -27 -65 -61 -65 -88 0 -31 12 -29 67 13 49 37 49
37 139 19 20 -5 42 -1 61 9 28 14 33 14 67 -4 41 -21 93 -20 88 1 -2 8 -15 24
-30 37 -23 19 -37 22 -97 20 -38 -1 -99 2 -135 6 -56 6 -69 4 -95 -13z"/>
<path d="M16149 5421 c-84 -6 -88 -8 -141 -51 -30 -25 -82 -75 -116 -111 -76
-82 -81 -112 -27 -173 19 -22 38 -36 42 -33 3 4 -2 16 -12 27 -38 42 -15 110
53 155 20 13 46 40 56 59 28 52 63 63 191 60 61 -2 135 -7 165 -10 l55 -7 -16
24 c-9 13 -31 34 -49 47 -35 23 -43 24 -201 13z"/>
<path d="M19591 5395 c-46 -42 -57 -69 -42 -105 5 -14 10 -19 11 -10 1 8 20
31 42 50 34 29 47 34 79 31 71 -6 253 -3 297 4 40 7 44 5 83 -34 23 -23 45
-41 50 -41 19 0 8 60 -16 88 -37 45 -77 58 -139 45 -54 -10 -147 -10 -257 2
l-66 8 -42 -38z"/>
<path d="M23029 5407 c-37 -25 -74 -86 -60 -100 5 -5 31 7 61 27 58 40 62 41
125 24 37 -10 50 -9 78 4 30 14 36 14 62 0 36 -19 95 -22 95 -6 0 16 -56 63
-84 70 -12 3 -42 1 -66 -5 -29 -6 -60 -7 -85 -1 -62 15 -89 12 -126 -13z"/>
<path d="M25574 5421 c-63 -4 -98 -11 -118 -24 -43 -29 -206 -192 -207 -208 0
-8 -2 -24 -5 -36 -2 -13 1 -23 7 -23 5 0 8 -3 6 -7 -2 -5 11 -24 30 -43 22
-23 33 -29 33 -18 0 8 -7 21 -15 28 -33 28 -3 102 59 142 19 13 45 40 56 60
12 21 31 43 43 50 26 14 252 14 314 0 23 -5 44 -7 47 -4 3 2 -4 18 -16 35 -24
33 -74 58 -115 55 -15 -1 -69 -4 -119 -7z"/>
<path d="M31559 5421 c-101 -7 -116 -17 -241 -146 -94 -97 -100 -125 -43 -189
37 -42 60 -44 27 -2 -10 14 -23 22 -26 18 -4 -4 1 16 11 43 13 35 31 59 63 83
25 19 54 49 64 68 30 51 64 61 191 58 61 -2 135 -7 165 -10 l55 -7 -16 24 c-9
13 -31 34 -49 47 -35 23 -43 24 -201 13z"/>
<path d="M36456 5418 c-11 -6 -44 -8 -78 -5 -33 3 -93 3 -134 0 -73 -6 -74 -6
-74 -34 l0 -29 155 0 155 0 6 24 c9 36 -6 57 -30 44z"/>
<path d="M10447 5393 c-26 -26 -27 -26 -47 -8 -11 10 -23 15 -27 12 -3 -4 0
-7 7 -7 7 0 11 -3 7 -6 -3 -3 6 -17 19 -31 18 -18 24 -32 19 -47 -20 -69 -18
-92 15 -129 18 -21 36 -37 40 -37 9 0 8 266 -1 274 -3 3 -17 -7 -32 -21z"/>
<path d="M34561 5385 l-33 -32 0 -433 0 -432 35 -36 c20 -20 38 -34 39 -32 2
3 1 228 -2 501 l-5 496 -34 -32z"/>
<path d="M17275 5401 c-73 -6 -80 -8 -83 -28 -3 -23 -3 -23 142 -24 80 -1 160
-2 176 -3 21 -1 29 3 25 12 -3 8 -5 15 -5 18 0 2 -13 10 -30 19 -30 15 -72 16
-225 6z"/>
<path d="M18162 5390 c-17 -10 -33 -23 -36 -29 -4 -6 -7 -365 -7 -797 l0 -786
27 -29 c15 -16 32 -25 36 -21 10 10 4 1513 -6 1563 -13 62 -10 63 312 63 l287
1 1 30 c1 17 0 24 -3 18 -3 -8 -14 -11 -26 -8 -12 3 -142 7 -289 9 -243 3
-270 2 -296 -14z"/>
<path d="M42559 5103 c-97 -98 -205 -202 -241 -231 -85 -70 -98 -93 -72 -129
26 -34 36 -34 45 0 10 36 33 53 81 61 31 5 39 11 44 34 16 76 36 97 105 111
28 6 34 12 40 40 11 54 30 81 76 107 24 15 52 43 68 70 14 24 29 44 33 44 4 0
20 11 35 26 16 15 32 22 40 18 8 -5 7 -2 -2 9 -7 10 -27 17 -45 17 -28 0 -53
-22 -207 -177z"/>
<path d="M29326 5245 c-11 -30 -7 -1223 4 -1230 6 -4 22 6 36 22 l26 28 0 567
c0 311 -4 572 -9 580 -4 7 -18 21 -29 31 -20 16 -22 16 -28 2z"/>
<path d="M6637 5228 c-3 -13 -6 -292 -6 -620 0 -474 3 -598 13 -598 7 0 25 14
41 30 23 24 29 38 27 68 -10 175 -12 919 -2 984 12 84 1 126 -39 148 -27 14
-28 13 -34 -12z"/>
<path d="M17481 4583 c1 -562 2 -634 15 -605 8 18 16 41 17 52 2 11 10 26 17
33 12 10 12 9 0 -8 -12 -17 -12 -18 0 -8 16 15 22 43 9 43 -5 0 -9 12 -9 26 0
14 4 23 10 19 14 -8 13 -2 -5 31 -13 25 -15 103 -13 539 l3 510 5 -517 c3
-284 8 -520 13 -524 4 -4 7 227 7 513 0 563 3 533 -51 533 -19 0 -19 -15 -18
-637z"/>
<path d="M13436 5090 c-37 -41 -38 -44 -34 -106 3 -54 9 -69 31 -92 l27 -27
283 -6 c260 -5 285 -4 324 13 63 29 90 103 63 174 -13 33 -58 77 -71 69 -15
-10 -10 -53 11 -95 25 -49 25 -62 0 -85 -18 -17 -44 -18 -298 -18 -291 0 -322
4 -322 44 0 11 7 34 16 50 9 18 14 48 12 76 l-3 46 -39 -43z"/>
<path d="M39699 5101 c-45 -44 -51 -64 -39 -133 8 -52 8 -483 -1 -856 -1 -36
4 -49 31 -77 18 -19 37 -32 41 -30 9 6 9 1114 0 1119 -3 2 -18 -8 -32 -23z"/>
<path d="M9303 5098 c-46 -51 -55 -109 -29 -173 26 -62 42 -65 354 -66 272 -2
281 -1 315 20 65 40 77 154 21 212 -15 16 -31 29 -36 29 -14 0 -8 -84 7 -104
21 -28 18 -60 -7 -82 -22 -18 -39 -19 -293 -18 -149 1 -280 4 -293 8 -32 10
-36 44 -12 98 13 30 18 56 14 73 -8 31 -15 31 -41 3z"/>
<path d="M19441 5104 c-36 -26 -51 -72 -43 -135 6 -41 5 -801 -1 -1007 0 -24
8 -41 33 -67 31 -32 35 -34 41 -17 9 25 9 1216 0 1230 -5 8 -14 7 -30 -4z"/>
<path d="M22849 5084 c-30 -31 -34 -41 -33 -88 0 -58 18 -95 58 -121 36 -24
585 -24 621 -1 42 27 60 65 59 123 0 46 -4 57 -34 88 -19 19 -38 35 -42 35
-16 0 -7 -76 12 -105 25 -37 25 -47 2 -76 -19 -22 -19 -22 -307 -22 -287 0
-288 0 -306 22 -18 21 -18 25 -2 59 19 43 29 122 16 122 -5 0 -25 -16 -44 -36z"/>
<path d="M20190 4490 c0 -382 4 -620 9 -620 6 0 22 10 36 23 l27 22 0 574 0
573 -23 24 c-50 54 -49 70 -49 -596z"/>
<path d="M10607 5053 c-10 -18 -14 -33 -10 -33 4 0 -2 -7 -13 -16 -10 -8 -12
-12 -4 -8 13 7 13 6 1 -10 -10 -12 -15 -46 -16 -109 -1 -95 -8 -118 -45 -152
-21 -19 -38 -20 -244 -22 -203 -2 -905 -11 -933 -12 -7 -1 -25 -12 -40 -26
-23 -20 -25 -26 -14 -34 8 -5 21 -7 28 -4 8 3 302 6 653 7 439 1 642 4 650 12
7 7 10 82 8 225 -3 211 -3 214 -21 182z"/>
<path d="M24172 5075 c-1 -5 -12 -26 -24 -45 -25 -40 -32 -63 -15 -53 7 4 5
-4 -4 -18 -13 -19 -16 -41 -12 -96 5 -61 3 -76 -16 -107 -12 -19 -32 -39 -44
-43 -12 -4 -116 -9 -232 -10 -923 -7 -970 -10 -989 -58 -10 -26 -8 -27 32 -20
20 4 321 7 669 8 347 1 634 5 637 8 4 3 5 105 3 225 -1 120 -3 215 -5 209z"/>
<path d="M14742 5053 c-5 -10 -7 -24 -5 -30 3 -7 -2 -16 -11 -19 -9 -3 -13
-10 -10 -15 3 -5 1 -9 -4 -9 -5 0 -8 -45 -8 -100 0 -85 -3 -104 -21 -128 -30
-40 -70 -56 -133 -53 -168 10 -1065 -6 -1088 -18 -24 -13 -68 -71 -53 -71 5 0
12 4 15 9 7 11 -27 11 694 14 550 2 634 4 642 17 13 20 13 407 1 415 -6 3 -14
-2 -19 -12z"/>
<path d="M11602 5013 c-6 -20 -8 -41 -5 -46 3 -6 1 -7 -5 -3 -7 4 -12 1 -12
-8 0 -9 -6 -16 -13 -16 -17 0 -23 -141 -7 -169 5 -11 23 -29 38 -40 l28 -20 2
170 c1 93 -2 169 -7 169 -4 0 -13 -16 -19 -37z"/>
<path d="M20876 5021 c-9 -16 -12 -31 -9 -35 4 -3 1 -6 -5 -6 -7 0 -12 -7 -12
-15 0 -8 -4 -15 -10 -15 -13 0 -12 -917 1 -925 5 -4 7 -11 3 -16 -3 -5 0 -8 6
-7 7 2 14 -4 15 -13 2 -9 10 -29 18 -45 15 -27 16 17 17 539 0 312 -2 567 -5
567 -2 0 -11 -13 -19 -29z"/>
<path d="M18767 5009 c-4 -13 -7 -203 -7 -422 0 -331 3 -404 15 -434 35 -84
14 -98 -147 -98 -82 0 -121 -4 -130 -13 -17 -17 -23 -312 -7 -312 19 0 68 60
64 79 -15 77 -16 111 -6 111 7 0 10 4 6 9 -3 5 7 19 21 30 24 19 23 23 -3 20
-5 -1 -7 -4 -6 -8 1 -4 -7 -7 -17 -7 -18 0 -18 2 2 23 14 15 24 19 29 12 4 -7
21 -9 45 -5 22 4 54 2 72 -3 40 -12 67 -3 106 36 l29 30 1 441 c1 243 -3 442
-7 442 -5 0 -6 4 -3 9 3 5 -2 15 -11 22 -14 12 -16 12 -8 0 5 -10 4 -12 -4 -7
-6 4 -9 11 -7 14 2 4 -1 18 -8 31 l-13 23 -6 -23z"/>
<path d="M12061 4867 l-1 -148 34 26 c45 34 48 44 40 132 -6 66 -9 74 -25 70
-11 -3 -17 -1 -14 3 3 5 0 12 -6 15 -6 4 -14 17 -19 29 -6 13 -9 -33 -9 -127z"/>
<path d="M12441 4955 c-32 -37 -33 -40 -27 -101 7 -64 -3 -99 -31 -117 -7 -4
-38 -31 -68 -59 -47 -43 -55 -56 -55 -87 0 -45 26 -206 36 -222 4 -8 3 -9 -4
-5 -7 4 -12 3 -12 -2 0 -8 42 -32 56 -32 3 0 4 66 3 148 -3 130 -1 152 16 186
24 47 57 56 96 27 l27 -20 4 137 c2 75 1 148 -2 161 -6 23 -6 23 -39 -14z"/>
<path d="M22191 4460 c1 -523 1 -525 20 -485 10 22 24 39 30 37 7 -2 9 4 6 12
-4 9 -2 18 3 21 5 3 9 180 9 425 l0 419 -23 28 c-12 15 -28 37 -34 48 -9 15
-11 -110 -11 -505z"/>
<path d="M8637 4949 c-9 -34 -7 -970 2 -994 7 -17 9 -16 16 10 5 17 7 34 6 38
-1 5 3 6 8 3 5 -3 15 2 22 11 12 14 12 16 -1 8 -12 -7 -13 -6 -3 6 9 11 13
133 15 452 2 240 2 433 0 428 -4 -11 -34 17 -49 44 -9 15 -11 15 -16 -6z"/>
<path d="M12770 4456 c0 -284 2 -516 5 -516 8 0 35 57 29 62 -2 3 4 11 13 19
17 13 17 13 3 -6 -14 -18 -14 -19 2 -7 15 12 17 52 18 433 0 231 3 434 5 452
3 17 2 26 -1 19 -4 -10 -16 -3 -40 23 l-34 38 0 -517z"/>
<path d="M39026 4932 c-8 -49 -8 -886 0 -945 l7 -46 28 55 28 55 3 435 c2 239
1 429 0 424 -2 -6 -16 5 -32 25 l-27 35 -7 -38z"/>
<path d="M25150 4819 c-19 -22 -36 -41 -38 -43 -2 -3 -4 -228 -4 -502 l0 -497
31 -31 c17 -16 33 -28 35 -25 3 2 6 260 8 572 2 312 3 567 3 566 0 0 -16 -19
-35 -40z"/>
<path d="M15725 4810 c-30 -31 -38 -46 -36 -72 9 -159 11 -803 1 -855 -8 -50
-8 -69 3 -95 16 -38 54 -75 65 -64 6 7 16 1126 9 1126 -2 0 -20 -18 -42 -40z"/>
<path d="M31137 4812 l-38 -39 0 -492 c0 -528 0 -523 50 -550 16 -9 20 -6 25
22 5 29 7 1097 2 1097 -1 0 -19 -17 -39 -38z"/>
<path d="M40420 4839 c0 -7 -3 -10 -6 -6 -3 3 -11 2 -18 -4 -6 -5 -22 -18 -36
-29 l-25 -19 200 -1 200 0 -28 26 c-37 34 -71 40 -182 34 -27 -2 -62 0 -77 4
-20 6 -28 5 -28 -5z"/>
<path d="M11918 4553 c-8 -239 -6 -263 21 -263 22 0 46 25 61 64 8 22 7 42 -5
88 -8 33 -15 67 -15 76 0 8 -10 27 -22 40 -13 14 -16 21 -8 17 10 -5 8 -1 -4
13 -11 12 -21 22 -23 22 -1 0 -4 -26 -5 -57z"/>
<path d="M13408 4537 c9 -27 8 -260 -2 -372 -6 -70 -4 -84 13 -112 11 -17 29
-37 41 -43 l20 -11 -2 257 -3 257 -37 23 -37 24 7 -23z"/>
<path d="M22825 4306 c0 -229 1 -245 20 -266 11 -12 27 -26 37 -31 16 -8 17 9
18 246 l1 254 -25 16 c-14 9 -31 13 -37 9 -8 -4 -9 -3 -5 4 4 7 4 12 -1 12 -4
0 -8 -110 -8 -244z"/>
<path d="M9267 4528 c7 -11 8 -167 0 -420 -1 -30 6 -45 33 -73 18 -19 36 -33
38 -30 7 7 14 445 8 480 -5 26 -14 36 -38 44 -41 15 -53 14 -41 -1z"/>
<path d="M36177 4483 c-3 -5 -7 -28 -9 -53 -3 -25 -3 -37 -1 -27 3 9 7 18 11
19 26 5 300 3 296 -3 -2 -4 0 -10 6 -14 13 -8 13 41 0 66 -10 17 -23 19 -155
19 -79 0 -146 -3 -148 -7z"/>
<path d="M36578 4435 c-8 -14 -10 -153 -4 -510 5 -347 5 -337 16 -310 10 23
11 693 2 775 -4 30 -10 51 -14 45z"/>
<path d="M41820 4390 c-36 -38 -40 -63 -28 -179 13 -141 19 -411 10 -480 -11
-75 2 -110 51 -140 31 -19 44 -21 97 -15 76 8 106 -5 121 -56 14 -46 -2 -87
-43 -109 -23 -13 -45 -13 -165 -3 -174 15 -517 16 -690 0 -145 -12 -181 -6
-210 38 -23 35 -10 88 28 115 27 19 39 21 92 15 69 -7 118 11 145 51 13 21 13
22 -10 17 -12 -3 -86 -9 -163 -14 -77 -5 -148 -11 -157 -15 -16 -6 -18 -22
-18 -130 0 -103 3 -124 16 -129 9 -3 291 -6 628 -6 463 0 615 3 624 12 19 19
16 242 -3 258 -12 10 -44 11 -127 7 -87 -4 -118 -3 -140 9 -38 20 -44 53 -19
100 19 36 21 55 21 259 0 220 0 221 -25 255 -32 44 -33 88 -2 95 12 3 41 -1
65 -9 40 -15 42 -14 42 5 0 30 -53 79 -85 79 -17 0 -37 -11 -55 -30z"/>
<path d="M42524 4412 c-6 -4 -10 -20 -10 -35 1 -22 24 -50 98 -123 53 -52 101
-94 107 -94 14 0 14 55 1 81 -7 12 -21 19 -40 19 -33 0 -53 17 -80 69 -28 53
-63 92 -76 83z"/>
<path d="M12158 4237 c-38 -37 -43 -53 -37 -112 1 -16 3 -40 3 -52 1 -13 5
-23 10 -23 4 0 6 -9 3 -20 -3 -11 -1 -20 4 -20 4 0 6 -6 3 -14 -3 -8 0 -17 7
-22 8 -5 10 -3 4 6 -5 9 -4 11 4 6 6 -4 9 -11 6 -15 -6 -10 21 -48 29 -40 4 3
5 82 4 175 l-3 168 -37 -37z"/>
<path d="M42846 4054 c-11 -8 -16 -14 -11 -14 4 0 0 -9 -9 -19 -10 -11 -20
-37 -23 -58 -5 -38 -4 -40 108 -151 101 -99 114 -109 117 -88 5 37 -44 124
-73 132 -29 7 -91 73 -106 112 -8 21 -7 34 7 60 20 37 17 46 -10 26z"/>
<path d="M10224 4052 c-13 -8 -25 -139 -15 -165 5 -15 17 -7 74 48 74 70 97
81 155 70 85 -16 126 -64 138 -163 3 -34 10 -59 14 -57 4 3 10 -2 14 -10 3 -8
10 -15 16 -15 11 0 15 256 4 284 -5 14 -32 16 -198 16 -105 0 -196 -4 -202 -8z"/>
<path d="M14357 4053 c-10 -16 -17 -159 -9 -171 6 -8 27 7 75 55 l67 68 60 0
c94 0 149 -53 161 -155 7 -58 30 -97 51 -84 12 8 9 253 -2 275 -10 18 -23 19
-205 19 -106 0 -196 -3 -198 -7z"/>
<path d="M23775 4051 c-3 -6 -8 -46 -12 -90 -8 -101 1 -104 81 -21 65 67 102
80 167 61 80 -24 116 -76 121 -173 1 -26 4 -45 7 -43 2 3 13 -3 23 -12 18 -16
18 -12 16 133 l-3 149 -197 3 c-119 1 -199 -1 -203 -7z"/>
<path d="M40610 4008 c-1 -29 -7 -64 -15 -78 -8 -14 -14 -34 -15 -45 0 -11 -6
-32 -14 -47 -8 -15 26 14 76 63 50 49 99 94 109 100 21 11 101 15 116 6 6 -4
18 0 29 7 15 12 16 16 5 30 -11 13 -37 16 -152 16 l-139 0 0 -52z"/>
<path d="M20543 3631 c-223 -225 -218 -221 -299 -206 -37 6 -44 4 -77 -25 -21
-18 -37 -37 -37 -44 0 -8 44 -10 158 -7 86 1 159 4 160 6 2 2 -6 17 -18 33
-18 24 -20 33 -11 50 15 29 93 81 131 89 18 3 34 13 37 22 18 62 58 148 75
162 15 14 26 16 45 8 38 -14 41 -12 48 34 17 109 16 109 -212 -122z"/>
<path d="M8777 3826 c-6 -16 3 -156 10 -156 3 0 11 7 19 15 30 30 61 18 104
-40 22 -30 45 -65 51 -77 6 -13 37 -38 70 -57 32 -19 68 -43 79 -53 26 -24 26
-64 0 -80 -11 -7 -20 -16 -20 -20 0 -5 57 -8 128 -8 70 0 145 -5 167 -10 22
-5 41 -8 42 -6 2 1 -18 24 -43 50 -49 51 -57 53 -150 30 -18 -5 -61 34 -236
211 -154 155 -217 212 -221 201z"/>
<path d="M12914 3793 c6 -136 3 -126 28 -109 49 34 86 7 148 -105 13 -24 128
-109 147 -109 11 0 32 -35 33 -53 0 -10 -12 -29 -26 -42 l-27 -25 134 0 c74 0
151 -4 172 -9 20 -5 37 -6 37 -2 0 4 -20 26 -44 50 -43 42 -44 43 -92 34 -27
-4 -58 -7 -68 -5 -11 1 -94 78 -185 170 -91 93 -187 187 -212 211 l-47 42 2
-48z"/>
<path d="M22331 3785 c1 -33 4 -73 8 -89 5 -26 7 -28 20 -13 14 18 48 22 67 9
6 -4 32 -38 58 -77 44 -66 83 -99 163 -141 45 -24 51 -59 17 -95 l-28 -29 137
0 c158 0 138 1 177 -10 l30 -9 -20 29 c-11 16 -33 39 -48 50 -27 22 -36 22
-118 5 -29 -6 -36 -1 -105 71 -65 69 -154 157 -311 312 l-48 46 1 -59z"/>
<path d="M34817 3834 c-25 -25 -3 -59 111 -170 l117 -116 65 8 c36 4 189 8
341 8 l275 1 37 28 c20 15 37 31 37 35 0 8 -627 5 -687 -4 -22 -3 -52 -3 -65
1 -12 4 -68 54 -123 112 -55 57 -104 101 -108 97z"/>
<path d="M39168 3818 c-3 -7 -2 -46 1 -87 6 -73 6 -73 25 -52 33 36 61 27 106
-34 22 -30 45 -66 52 -80 6 -14 14 -25 18 -25 3 0 39 -21 78 -46 61 -39 72
-50 72 -73 0 -16 -9 -36 -21 -47 -21 -19 -20 -19 127 -25 82 -4 160 -10 173
-14 24 -8 23 -7 -8 32 -46 58 -68 67 -127 55 -30 -7 -55 -7 -65 -1 -10 5 -89
81 -176 170 -183 186 -249 245 -255 227z"/>
<path d="M20066 3664 c-48 -55 -50 -56 -90 -49 -42 7 -224 10 -296 4 -35 -3
-44 1 -84 40 l-45 44 -7 -27 c-8 -33 15 -69 67 -104 29 -20 41 -22 84 -16 27
4 66 8 87 8 20 0 34 4 32 8 -3 5 4 8 16 8 12 0 19 -4 16 -8 -3 -4 14 -8 37 -7
23 0 60 -3 82 -8 53 -11 75 -4 118 40 33 33 37 42 35 80 -2 24 -3 43 -3 42 0
0 -22 -25 -49 -55z"/>
<path d="M11475 3693 c4 -10 10 -85 13 -168 2 -82 9 -156 14 -162 8 -10 62
-13 208 -13 l198 0 4 93 c3 50 3 97 1 103 -2 6 -37 -23 -77 -63 l-73 -73 -56
0 c-67 0 -118 22 -141 60 -13 23 -15 43 -10 97 l6 68 -40 38 c-45 41 -58 46
-47 20z"/>
<path d="M14515 3597 c-105 -108 -108 -112 -81 -115 20 -3 42 6 73 28 30 22
52 31 69 27 20 -3 25 0 30 22 3 14 10 40 15 56 6 23 11 97 5 94 -1 0 -50 -50
-111 -112z"/>
<path d="M23930 3597 c-58 -59 -103 -111 -100 -115 10 -13 56 1 97 30 28 21
50 29 66 26 23 -5 26 -1 41 69 9 41 13 80 9 86 -5 8 -44 -25 -113 -96z"/>
<path d="M10420 3637 c-36 -34 -86 -85 -113 -113 l-47 -51 37 7 c21 3 57 19
80 34 23 15 51 26 64 24 20 -3 24 4 36 57 8 33 12 70 11 82 -3 20 -10 16 -68
-40z"/>
<path d="M7275 3648 c10 -51 68 -79 148 -71 68 7 107 -7 131 -48 25 -43 8 -91
-41 -114 -33 -16 -52 -17 -197 -7 -274 19 -371 23 -389 16 -10 -3 -32 -27 -49
-52 -24 -35 -27 -43 -12 -36 10 5 181 11 379 14 198 3 366 9 373 13 8 6 12 44
12 132 l0 125 -26 6 c-15 4 -72 4 -127 1 -78 -5 -106 -3 -128 9 -16 8 -40 19
-53 24 -22 8 -24 6 -21 -12z"/>
<path d="M29957 3656 c-6 -15 35 -57 68 -73 11 -5 115 -9 230 -8 205 1 212 1
244 24 24 18 30 26 20 31 -8 4 -113 4 -234 0 -215 -7 -220 -6 -271 16 -41 18
-53 20 -57 10z"/>
<path d="M39977 3610 c60 -59 62 -60 117 -60 50 0 60 4 94 34 20 19 33 38 29
43 -5 4 -47 7 -93 5 -67 -2 -97 1 -140 18 -30 11 -58 20 -62 20 -4 0 21 -27
55 -60z"/>
<path d="M9724 3630 c-12 -5 -6 -14 25 -43 37 -33 47 -37 97 -37 51 0 59 3 95
38 21 22 39 41 39 44 0 6 -237 4 -256 -2z"/>
<path d="M13868 3629 c-14 -9 9 -43 43 -63 16 -9 49 -16 79 -16 47 0 56 4 86
36 19 19 34 39 34 42 0 9 -228 9 -242 1z"/>
<path d="M14925 3631 c-71 -3 -136 -10 -142 -14 -9 -6 -13 -42 -13 -121 0 -93
3 -116 17 -127 13 -12 125 -14 637 -14 l621 0 3 133 c1 72 -1 132 -5 133 -4 0
-35 3 -68 6 -70 7 -104 7 -111 0 -3 -2 19 -27 48 -55 44 -42 52 -55 52 -86 0
-53 -32 -81 -87 -78 -191 11 -664 12 -788 2 -163 -13 -217 -5 -244 33 -29 41
-13 117 25 117 10 0 22 5 26 11 5 8 30 9 78 5 66 -6 74 -4 110 20 29 20 35 28
25 35 -8 5 -23 8 -34 7 -11 -1 -78 -4 -150 -7z"/>
<path d="M23280 3630 c-21 -5 -21 -6 7 -31 41 -39 69 -51 120 -51 39 0 51 6
84 38 22 21 39 41 39 44 0 8 -218 7 -250 0z"/>
<path d="M24355 3633 c-182 -4 -166 9 -163 -141 l3 -127 50 -7 c28 -3 309 -7
625 -7 436 -1 579 2 588 11 19 19 16 242 -3 258 -8 6 -18 9 -23 6 -5 -3 -32
-2 -61 3 -28 4 -63 6 -76 3 -23 -4 -22 -7 30 -56 49 -46 55 -56 55 -92 0 -62
-26 -80 -104 -75 -86 6 -697 7 -836 1 -63 -2 -124 -1 -135 2 -11 4 -23 7 -27
7 -4 1 -14 17 -22 36 -11 27 -12 42 -5 65 6 16 15 28 19 25 5 -3 13 3 19 12 6
10 11 14 11 9 0 -5 7 -3 15 4 11 9 34 11 75 7 63 -7 96 1 124 28 20 20 12 36
-17 33 -12 -1 -76 -4 -142 -5z"/>
<path d="M31288 3633 c-10 -3 -18 -6 -18 -8 0 -2 23 -26 52 -53 45 -43 52 -55
51 -87 -2 -59 -30 -81 -101 -76 -66 4 -623 6 -982 2 -135 -1 -342 3 -460 9
l-215 11 -27 -31 c-16 -17 -28 -36 -28 -43 0 -9 199 -11 937 -9 516 1 944 4
951 7 9 3 12 40 12 135 0 71 -3 130 -7 131 -5 0 -30 2 -58 4 -27 3 -59 6 -70
8 -11 2 -28 2 -37 0z"/>
<path d="M6615 3552 c-27 -17 -44 -35 -116 -121 -18 -21 -25 -23 -69 -17 -63
8 -92 -6 -169 -84 l-57 -59 -110 0 c-144 0 -165 -3 -200 -26 -16 -11 -36 -23
-44 -27 -8 -4 94 -7 228 -7 133 -1 242 1 242 4 0 3 -7 16 -16 30 -20 31 -15
55 21 85 27 23 35 25 122 22 82 -2 95 0 113 18 11 11 20 33 20 49 0 43 30 76
62 68 35 -9 42 -43 18 -93 -23 -46 -27 -153 -8 -172 8 -8 47 -12 113 -12 99 1
100 1 70 17 -16 10 -33 16 -37 15 -4 -1 -5 5 -2 13 4 11 2 13 -9 10 -17 -7
-80 28 -70 38 3 4 1 7 -5 7 -20 0 -24 63 -8 109 23 63 20 89 -13 122 -35 34
-37 34 -76 11z"/>
<path d="M29238 3489 l-78 -82 -50 7 c-63 8 -92 -7 -169 -90 l-53 -57 -71 6
c-40 3 -95 1 -123 -4 -33 -6 -61 -6 -78 0 -18 8 -25 7 -23 -1 1 -6 -13 -22
-32 -35 l-34 -23 241 0 241 0 -16 28 c-22 38 -11 78 30 102 28 18 43 19 113
14 101 -8 120 1 129 58 10 59 22 78 48 78 50 0 61 -49 26 -107 -18 -30 -21
-44 -15 -96 3 -34 10 -65 14 -69 5 -5 54 -7 109 -6 l100 3 -34 22 c-19 13 -31
17 -27 10 4 -6 -4 -2 -17 10 -13 12 -28 21 -33 21 -5 -1 -20 9 -33 21 -27 27
-29 64 -8 134 13 42 13 53 0 83 -12 29 -45 54 -73 54 -4 0 -42 -36 -84 -81z"/>
<path d="M36132 3548 c-15 -15 -15 -29 0 -25 6 1 22 -14 35 -33 21 -29 24 -44
21 -87 l-5 -53 149 0 148 0 10 26 c6 14 9 40 9 57 -1 24 -3 26 -6 9 -2 -12 -9
-20 -14 -16 -6 3 -16 0 -24 -6 -16 -14 -114 -18 -133 -6 -7 4 -37 38 -68 77
-44 55 -60 69 -82 69 -16 0 -33 -5 -40 -12z"/>
<path d="M36600 3463 c0 -65 9 -87 33 -78 9 4 28 -3 44 -14 l28 -21 1165 2
1165 3 1 25 2 25 -121 5 c-144 6 -756 6 -942 1 -71 -3 -305 -1 -520 4 -287 6
-428 4 -533 -5 -114 -10 -153 -10 -188 0 -26 8 -41 17 -38 24 3 6 -2 2 -10 -8
-16 -20 -16 -19 -16 1 0 12 5 23 11 25 7 2 7 12 -2 31 -9 19 -15 24 -20 15 -6
-9 -12 -8 -27 5 -10 9 -22 17 -25 17 -4 0 -7 -26 -7 -57z"/>
<path d="M10030 3393 c-47 -47 -49 -55 -12 -49 15 2 80 5 146 5 l119 1 -27 21
c-14 11 -26 27 -26 34 0 9 -12 13 -37 13 -21 0 -57 3 -80 7 -40 7 -44 5 -83
-32z"/>
<path d="M14168 3393 c-45 -46 -47 -55 -10 -49 15 2 79 5 144 5 l116 1 -35 35
c-23 23 -43 34 -61 33 -15 0 -47 3 -72 6 -43 7 -47 6 -82 -31z"/>
<path d="M19359 3425 c-3 -2 -21 -5 -42 -7 -20 -1 -37 -6 -37 -11 0 -5 -8 -6
-17 -3 -10 4 -14 4 -11 0 4 -4 -5 -16 -20 -28 l-27 -21 161 -5 c106 -3 166 -9
176 -18 8 -6 17 -9 20 -6 3 3 -18 27 -47 55 -48 45 -56 49 -102 49 -27 0 -52
-2 -54 -5z"/>
<path d="M23586 3393 c-43 -45 -45 -55 -8 -49 15 2 79 5 142 6 108 1 114 2 93
17 -13 8 -23 21 -23 28 0 21 -25 36 -38 23 -9 -9 -21 -8 -50 0 -61 18 -77 15
-116 -25z"/>
<path d="M34733 3423 c-24 -2 -43 -9 -43 -15 0 -5 -8 -7 -17 -4 -10 4 -14 4
-11 0 4 -3 -5 -17 -20 -30 l-27 -23 145 -2 c80 0 155 -2 168 -3 30 -4 28 4
-16 47 -40 39 -51 41 -179 30z"/>
<path d="M16350 3410 c-47 -5 -99 -11 -117 -13 -18 -3 -34 0 -37 7 -2 6 -3 -2
-2 -19 l1 -30 573 -3 572 -2 10 26 c6 14 10 26 10 27 0 9 -930 15 -1010 7z"/>
<path d="M25765 3410 c-44 -5 -96 -11 -115 -13 -27 -2 -35 -7 -35 -22 0 -20
11 -20 575 -20 l575 0 0 25 c1 29 56 26 -525 33 -217 3 -431 1 -475 -3z"/>
<path d="M31727 3407 c-77 -8 -118 -9 -121 -2 -2 6 -3 -3 -2 -20 l1 -30 575 0
c504 0 575 2 575 15 0 8 3 20 7 25 7 12 1 12 -532 19 -257 3 -424 1 -503 -7z"/>
<path d="M35735 3402 c-16 -11 -41 -32 -55 -47 l-25 -28 35 8 c19 4 103 10
186 12 146 4 152 5 147 24 -9 32 -42 42 -153 46 -91 4 -109 2 -135 -15z"/>
<path d="M42394 3411 c-17 -5 -44 -7 -60 -7 -26 1 -30 -3 -29 -24 l0 -25 505
0 c498 0 505 0 505 20 0 18 -11 21 -135 32 -149 12 -737 15 -786 4z"/>
<path d="M35617 3292 c-15 -14 -51 -17 -275 -18 -273 -2 -292 -3 -292 -15 0
-4 -15 -16 -32 -28 l-33 -21 359 0 359 0 -21 23 c-12 13 -22 35 -22 50 0 30
-16 34 -43 9z"/>
<path d="M9580 3271 c-14 -4 -41 -7 -60 -6 -21 2 -43 -4 -55 -15 -11 -9 -29
-22 -40 -28 -15 -9 52 -11 269 -12 l289 0 -39 27 c-21 14 -55 28 -74 30 -91 9
-268 11 -290 4z"/>
<path d="M13605 3261 c-3 -10 -20 -26 -38 -35 -30 -15 -13 -16 263 -15 162 0
288 3 280 6 -30 12 -56 39 -52 53 3 11 1 12 -7 4 -8 -7 -32 -9 -64 -5 -58 6
-232 7 -287 1 -19 -2 -47 -1 -62 3 -21 6 -28 3 -33 -12z"/>
<path d="M18158 3275 c-6 -6 -26 -9 -102 -14 -5 -1 -6 -4 -2 -8 4 -4 -8 -15
-26 -25 -32 -17 -28 -17 206 -18 209 0 237 2 226 15 -29 35 -75 48 -185 53
-60 2 -113 1 -117 -3z"/>
<path d="M19585 3261 c-3 -12 -18 -28 -33 -36 -24 -13 4 -14 267 -15 l294 0
-30 29 c-25 23 -40 29 -89 32 -76 4 -245 5 -309 1 -27 -2 -60 0 -72 3 -16 5
-23 2 -28 -14z"/>
<path d="M23140 3272 c-13 -4 -46 -7 -73 -6 -27 2 -46 0 -43 -4 4 -3 -10 -16
-31 -29 l-38 -23 290 0 c282 1 289 1 257 18 -18 10 -30 21 -26 25 4 4 3 8 -2
8 -90 13 -302 20 -334 11z"/>
<path d="M39863 3268 c1 -6 -13 -22 -32 -35 l-34 -23 254 0 254 1 -27 23 c-15
13 -25 26 -23 27 12 13 -237 18 -317 7 -27 -3 -50 -2 -54 3 -8 13 -24 11 -21
-3z"/>
</g>
</svg>
