<?xml version="1.0" encoding="utf-8" ?><svg xmlns="http://www.w3.org/2000/svg" xmlns:xlink="http://www.w3.org/1999/xlink" width="821" height="1024" viewBox="0 0 821 1024"><path fill="#FEFDFE" transform="scale(0.625762 0.625917)" d="M77.5878 0L81.8378 0C83.9369 9.57249 93.5124 9.6371 96.194 21.955C106.006 29.3828 127.379 72.0307 136.923 83.3613C139.493 86.4123 142.585 92.2526 143.64 96.1969C148.252 98.8828 160.202 118.563 161.289 124.052C173.198 131.725 167.063 138.917 177.387 144.646C180.003 149.054 179.862 151.413 183.537 156.525C191.503 167.606 197.989 180.049 206.274 190.957C207.009 191.959 207.409 195.786 208.185 196.694C210.824 199.784 217.009 201.741 220.657 203.113C235.56 199.139 250.543 196.854 265.707 194.123C271.924 193.002 284.656 189.861 290.3 189.873C302.681 186.815 341.367 185.57 347.521 181.402C367.915 180.121 382.695 177.79 401.915 176.109C445 172.286 488.155 169.286 531.355 167.112C627.822 163.17 724.426 164.079 820.802 169.834C835.255 170.641 850.199 170.95 864.572 172.008C931.538 176.717 998.202 185.022 1064.28 196.888C1087.56 201.086 1111 204.554 1133.73 211.146C1162.04 219.349 1190.88 224.234 1217.76 236.757C1235.51 244.868 1254.48 249.963 1270.48 261.697C1272.97 263.523 1275.7 265.045 1278.63 266.093L1279.09 266.872C1291.12 286.837 1312.63 300.042 1305.39 328.417C1301.21 344.837 1290.61 360.527 1278.53 372.301C1272.28 378.398 1257 384.693 1249.59 390.1C1245.7 392.064 1239.81 393.231 1236.26 395.546C1212.04 411.331 1189.76 429.671 1168.32 449.018C1161.69 455 1144.2 468.687 1141.14 475.636C1134.85 478.671 1134.84 478.439 1131.85 484.942C1125.9 487.821 1125.55 487.989 1122.65 494.25C1116.63 496.97 1115.97 499.781 1111.46 504.147C1100.24 515.007 1090.68 526.999 1080.74 538.986C1070.25 551.614 1033.7 591.013 1028.27 604.549C1027.05 605.113 1025.53 605.836 1024.63 606.858C1019.73 612.421 1014.59 620.875 1009.9 627.118C995.276 646.6 982.055 666.759 968.533 687.008C959.888 699.953 950.709 712.71 942.773 726.104C938.607 733.134 908.742 787.997 905.501 790.519C902.02 793.228 900.184 800.415 898.181 804.487L879.976 841.625C878.677 844.224 876.086 847.681 875.069 849.788C871.666 856.84 873.396 862.053 866.342 866.458C865.323 867.095 862.666 881.461 860.057 882.486C859.462 882.946 857.918 884.157 857.65 884.923C849.01 909.618 838.267 933.654 828.657 958.011C825.973 964.813 825.297 972.474 819.948 977.42C819.128 981.592 816.338 997.995 814.69 1000.61C808.37 1010.63 808.944 1017.16 806.468 1028.37C804.636 1032.49 801.698 1036 800.082 1040.23C799.025 1043 798.723 1054.51 797.589 1056.34C789.519 1069.37 790.886 1081.74 788.287 1096.11C787.453 1100.72 782.464 1106.81 782.117 1112.06C780.797 1120.46 780.231 1128.59 778.812 1136.95C777.954 1142 773.725 1148.04 772.969 1152.48C770.671 1165.96 771.919 1179.69 770.141 1193.13C768.984 1201.89 764.983 1211.02 763.185 1219.5C762.885 1220.92 763.375 1229.01 763.167 1231.39C761.612 1249.1 760.981 1267.51 761.025 1285.32C761.078 1306.46 760.134 1328.15 760.258 1349.18C760.353 1365.48 762.683 1384.17 762.579 1400.94C762.544 1406.71 764.264 1413.91 764.583 1419.76C774.147 1423.68 778.135 1423.64 788.43 1423.64C802.799 1423.64 817.199 1423.91 831.432 1426.1C842.121 1427.74 852.974 1427.85 863.702 1429.03C918.161 1438.47 991.614 1449.52 1018.94 1504.6C1023.21 1513.73 1023.84 1533.84 1019.85 1542.9C1017.49 1548.27 1014.32 1551.03 1011.93 1557.47C1005.96 1560.43 1006.14 1560.43 1003.01 1566.58C997.28 1569.25 996.49 1569.42 992.836 1574.76L991.829 1575.13C981.072 1579.17 970.252 1587.47 959.71 1591.55C932.068 1602.25 904.459 1611.17 875.074 1615.54C869.257 1616.83 865.877 1619.24 859.793 1619.95C847.834 1621.34 834.453 1622.49 822.677 1624.1C806.068 1626.37 761.422 1626.32 749.098 1636L614.315 1636C593.52 1627.06 576.937 1626.56 554.663 1625.54C518.272 1622.6 486.236 1617.54 451.019 1608C444.412 1606.21 437.33 1604.66 430.821 1602.66C427.866 1602.05 421.562 1597.32 419.008 1596.95C401.091 1594.35 385.452 1582.77 369.417 1574.79C363.296 1571.75 364.12 1568.65 356.326 1566.24C354.278 1560.77 353.491 1561.15 349.656 1557.21C318.484 1525.15 346.531 1479.72 379.675 1462.35C427.549 1437.25 484.347 1432.19 537.303 1426.54C550.639 1425.11 571.956 1425.89 584.096 1423.02C585.841 1420.76 587.776 1419.01 589.817 1417.02C591.03 1414.03 589.458 1404.85 590.133 1401.37C590.85 1397.03 594.585 1390.63 594.724 1386.37C594.655 1370.75 597.36 1354.53 597.414 1339.09C597.514 1310.64 597.941 1282.11 597.261 1253.66C597.097 1246.79 595.322 1239.59 595.146 1232.92C594.946 1225.33 595.398 1218.31 594.887 1210.65L592.914 1210.28C588.239 1197.28 587.765 1167.59 585.139 1151.14L584.635 1150.69C584.334 1150.41 582.107 1148.32 582.094 1148.26C579.574 1137.18 576.364 1115.59 575.92 1105.28C569.497 1099.78 569.293 1086.34 566.594 1078.2C562.429 1065.65 558.321 1055.24 557.247 1041.89C551.406 1036.77 548.759 1021.93 546.949 1014.12C538.835 1006.7 531.534 970.831 527.64 966.553C522.988 961.442 522.991 954.428 519.547 948.533C515.432 941.487 512.443 933.945 508.98 926.576C502.372 912.516 495.685 898.35 488.848 884.407C483.856 874.226 477.029 865.052 471.723 855.017C469.058 849.977 466.539 839.802 462.042 836.637C458.336 834.03 441.055 799.993 436.644 793.25C435.124 790.925 432.543 790.306 431.176 788.292C426.215 780.983 422.815 772.294 417.88 764.968C416.683 763.192 414.786 762.899 413.481 761.476C411.282 759.078 409.566 755.041 407.892 752.189C405.982 748.936 403.187 746.052 401.478 742.775C400.174 740.272 400.644 737.405 398.006 735.744C396.778 734.97 395.681 734.573 394.625 733.479C391.818 730.569 382.712 716.248 379.407 711.758C370.69 699.918 347.66 674.918 343.07 663.308C341.032 662.082 339.211 661.176 337.84 659.217C330.772 649.12 321.781 640.056 313.869 630.675C299.897 614.219 285.834 597.732 270.938 582.095C266.201 577.122 261.158 569.83 254.927 567.687C254.724 567.172 254.513 566.659 254.296 566.15C251.953 560.669 242.06 553.638 238.007 548.499C234.711 544.32 232.373 541.635 227.392 539.605C227.128 538.901 226.852 538.202 226.566 537.507C224.527 532.543 223.306 532.557 218.253 530.467C215.631 523.96 215.476 524.071 209.285 521.244C206.725 515.132 206.523 514.839 200.489 512.344C197.471 507.108 186.122 496.349 180.417 494.26C177.568 488.627 132.291 448.382 126.64 446.451C123.606 440.383 123.054 440.278 116.928 437.978C113.502 432.087 97.6984 420.94 91.5871 416.143L42.4147 377.33C36.9887 373.12 29.5489 365.841 24.1279 363.802C21.4993 357.569 21.2682 357.649 15.5267 354.425C12.125 345.688 7.68442 332.683 0 327.676L0 311.451C3.53175 308.946 5.2242 307.866 6.78371 303.674C15.6924 280.088 33.3519 266.997 54.7742 255.293C75.7272 243.845 99.6349 236.559 121.204 227.305C135.922 220.991 185.75 213.222 195.722 205.821C196.587 203.346 196.019 200.377 194.542 198.277C166.733 158.734 142.109 116.303 115.601 75.9578L87.2041 31.9765C82.0481 23.8351 78.716 20.2876 74.4406 11.341C75.7032 7.38103 76.5851 4.03215 77.5878 0ZM485.993 817.806C496.001 822.78 491.179 827.379 496.073 835.318C501.934 838.119 499.913 835.923 502.494 842.118C505.587 849.539 503.745 851.041 510.577 855.55C511.545 857.56 512.76 863.953 513.283 864.517C521.428 873.304 521.665 880.788 527.395 891.321C533.323 902.217 539.194 913.624 542.869 925.432C543.103 926.294 546.374 928.82 547.276 929.519C551.255 937.882 547.486 942.889 556.37 948.592C557.96 949.613 558.24 967.644 563.093 969.133C571.452 977.177 563.572 988.632 574.694 994.728C577.17 1007.03 579.53 1013.75 585.217 1024.88C586.666 1027.71 586.582 1037.4 587.901 1040.82C588.754 1043.88 593.433 1048.84 594.173 1051.87C596.943 1063.23 593.609 1071.23 602.238 1079.87C603.514 1081.14 605.331 1099.75 606.291 1102.26C608.249 1109.07 611.399 1114.9 613.144 1121.83C614.831 1128.53 613.388 1140.6 615.375 1146.62C620.205 1161.24 622.706 1166.95 623.369 1182.24C621.84 1189.05 624.292 1236.66 624.326 1248.06C624.336 1251.37 627.236 1259.46 627.195 1264.84C627.095 1277.78 627.264 1290.72 627.532 1303.65C627.744 1313.87 628.096 1324.24 627.845 1334.46C627.728 1339.25 624.817 1346.36 624.669 1350.56C624.224 1363.16 622.654 1386.53 624.015 1398.35C624.654 1403.69 622.678 1432.42 620.617 1436.05C611.996 1451.23 615.134 1464.49 611.001 1480.86C610.593 1482.47 607.266 1485.82 606.168 1489.19C604.302 1494.92 603.876 1505.31 601.386 1510.22C599.864 1511.18 598.132 1512.11 597.673 1514.18C595.615 1523.21 589.725 1537.43 592.945 1546.41C594.804 1551.59 617.218 1553.55 622.456 1554.36C658.849 1560.02 695.784 1558.93 732.081 1553.17C738.31 1552.18 745.77 1551.25 751.541 1548.71C755.018 1547.02 756.029 1539.48 756.824 1535.74C752.432 1526.33 752.46 1523.77 751.111 1513.51C743.146 1506.6 744.804 1487.06 742.245 1475.37C741.284 1474.46 739.406 1472.72 739.174 1471.49C736.055 1454.97 734.483 1437.01 732.96 1420.43L732.154 1422.08C725.397 1411.85 727.149 1382.81 726.564 1369.61C725.412 1343.6 726.011 1315.66 726.489 1289.64C726.766 1274.54 725.147 1224.66 732.154 1214.86L732.956 1216.4C735.851 1197.31 735.448 1177.06 737.105 1157.86C737.384 1154.62 741.808 1150.59 742.511 1146.61C744.334 1136.3 745.118 1125.91 746.542 1115.55C748.003 1111.57 751.047 1110.72 751.645 1106.2C753.095 1095.22 754.378 1083.61 756.505 1072.77C757.022 1070.13 760.243 1068.1 761.171 1064.65C763.325 1056.64 761.712 1043.86 768.657 1038.58C771.288 1036.64 772.267 1018.45 774.875 1012.82C776 1011.93 777.812 1010.77 778.476 1009.49C780.815 1005 781.558 992.909 782.983 987.184C784.145 982.519 787.632 978.931 788.986 974.475C790.508 969.463 790.141 963.181 792.309 958.475C792.837 957.328 793.83 956.527 794.778 955.735C798.617 952.529 808.764 914.531 813.351 910.207C817.853 905.963 818.331 897.282 820.634 891.427C826.09 877.551 832.511 863.579 839.424 850.365C840.863 847.614 843.032 845.324 844.385 842.535C846.612 837.945 846.809 830.64 850.723 827.39C855.002 823.836 863.593 799.853 867.406 792.624C868.564 790.427 871.467 789.813 872.227 787.505C872.683 786.12 872.493 784.381 872.942 782.901C874.368 778.204 881.771 768.008 884.54 763.262C896.355 743.013 907.622 722.311 919.862 702.329C926.793 691.013 975.549 617.096 979.547 614.975C981.117 614.143 981.837 613.697 983.025 612.354C983.974 604.536 999.198 590.312 1003.21 582.331C1004.99 578.792 1007.82 578.422 1010.59 575.86C1010.72 574.616 1011.25 571.699 1012.07 570.743C1026.42 553.976 1039.23 535.625 1055.6 520.757C1057.35 519.163 1056.48 516.978 1058.47 514.83C1072.67 499.313 1087.13 484.04 1101.85 469.016C1108.35 462.351 1134.27 440.035 1135.06 432.777C1133.46 429.595 1129.72 427.743 1126.59 428.975C1105.98 437.095 1083.35 438.9 1061.56 442.163C1056.88 443.034 1052.45 445.72 1047.69 446.263C1015.91 451.117 984.632 455.045 952.707 458.449C912.212 462.768 872.878 468.91 831.791 468.351C818.188 468.167 802.92 472.12 789.245 472.394C744.444 473.29 699.639 474.022 654.845 475.355C613.146 475.45 570.422 472.007 528.566 472.497C516.797 472.071 503.92 469.01 492.245 468.872C476.321 468.685 456.19 465.054 440.816 468.795C435.897 486.34 426.355 497.683 415.008 509.676C411.151 513.752 425.175 533.357 428.846 538.944C439.818 555.644 451.275 575.662 463.482 591.824C464.865 593.689 467.801 601.253 469.088 603.946C476.678 608.434 485.088 630.04 492.405 636.959C492.864 637.392 493.998 641.468 494.23 642.395C499.965 646.223 502.919 648.835 502.476 656.994C502.347 659.368 501.187 660.277 499.37 661.596C496.437 662.307 489.418 660.9 488.694 659.741C485.253 654.227 481.114 647.301 477.579 641.864L423.995 558.431C417.009 547.459 410.396 535.783 402.887 525.216C397.775 520.211 384.646 526.089 379.854 527.65C368.158 531.457 349.697 532.759 338.224 528.79C335.937 527.185 328.877 525.413 325.436 524.166C315.686 523.66 313.439 520.264 305.768 516.9C276.059 503.87 253.269 480.995 234.59 455.009C234.271 454.565 233.953 451.7 233.889 450.998C228.632 445.152 228.609 447.013 225.861 439.744L218.765 437.049C210.396 433.82 194.719 431.876 185.513 429.402C177.831 427.337 170.308 423.853 162.742 421.967C160.319 423.25 160.25 423.657 158.709 426.066C157.714 434.906 173.075 444.34 179.71 449.971C190.205 459.054 200.613 468.237 210.933 477.518C236.01 500.029 259.187 525.492 283.292 549.1C289.118 554.805 294.907 560.75 300.305 566.867L335.066 605.615C337.626 608.434 337.092 613.179 340.949 614.694C349.385 618.008 370.01 649.377 376.932 657.979C378.572 660.016 382.068 660.76 382.911 663.084C383.73 665.345 383.626 668.75 385.742 670.153C385.81 670.198 387.392 670.818 387.394 670.819C390.757 672.305 404.789 693.118 408.834 697.888C413.007 702.808 410.209 705.438 417.477 708.362C422.433 714.949 428.44 725.674 432.455 733.163C432.455 733.164 436.358 735.639 436.358 735.641C437.73 738.023 439.605 741.882 441.084 744.156C445.307 750.649 449.572 758.121 454.542 763.94C456.711 766.48 457.108 768.439 458.062 771.567C464.549 776.009 484.065 808.97 485.993 817.806ZM108.878 373.467C116.163 374.454 124.137 379.954 131.488 382.033C146.047 386.152 160.509 389.925 175.209 393.493C186.134 396.146 195.522 399.942 206.791 402.192C213.409 384.685 208.742 390.177 208.314 373.09C207.559 342.952 216.786 315.864 240.915 296.413C244.203 293.762 247.024 290.63 250.55 288.351C245.904 275.15 226.201 250.518 218.108 237.743C216.88 235.805 208.926 236.378 206.572 236.691C199.396 237.272 195.048 240.944 188.536 242.355C146.117 251.541 104.704 265.197 66.0584 285.053C62.1112 287.081 59.4117 290.973 54.9435 292.104C48.9784 294.192 38.6434 309.943 34.51 313.542C35.4189 328.136 36.6114 325.253 42.7026 337.206C50.431 340.83 47.0605 341.147 52.3647 345.073C56.9756 348.486 64.113 352.285 69.0675 355.426C81.5542 363.344 95.7198 367.206 108.878 373.467ZM801.172 1532.12C798.568 1542.69 795.103 1537.28 789.579 1547.46C780.335 1550.15 783.652 1551.2 777.986 1553.83C736.781 1572.59 686.359 1575.7 641.648 1572.28C619.467 1570.58 590.59 1563.68 570.337 1554.96C564.185 1552.31 559.05 1548.63 552.37 1546.29L551.396 1545.95C546.654 1536.21 531.879 1528.84 536.356 1513.62C538.327 1506.92 542.99 1495.43 548.966 1491.88C552.202 1492.21 554.431 1492.02 556.804 1494.08C559.11 1498.36 556.812 1502.95 554.857 1507.13C552.868 1510.14 549.81 1514.03 550.878 1517.63C553.963 1528.05 565.324 1524.64 566.488 1514.47L566.881 1511.19C573.298 1501.63 580.296 1469.3 578.741 1457.07C560.625 1451.64 477.712 1466.22 455.978 1469.82C430.46 1474.06 380.845 1487.72 371.957 1514.06C369.023 1521.12 371.709 1530.96 373.415 1537.87C377.579 1540.9 381.399 1544.4 385.598 1547.34C394.315 1553.44 404.701 1558.56 414.465 1562.78C432.745 1570.7 452.499 1575.86 471.802 1580.53C562.572 1602.47 675.547 1606.39 768.339 1598.9C778.52 1598.08 788.508 1596.32 798.64 1595.25C812.317 1593.8 825.854 1592.54 839.457 1590.39C875.665 1584.67 965.999 1566.07 987.487 1535.73C990.416 1531.59 992.422 1526.96 991.554 1521.8C990.136 1513.36 978.76 1499.94 971.621 1495.28C960.867 1488.26 948.935 1481.94 936.764 1477.7C931.377 1475.82 925.7 1474.83 920.237 1473.19C914.623 1471.5 909.149 1469.14 903.427 1467.85C896.474 1466.27 889.214 1465.79 882.179 1464.63C852.949 1459.78 832.322 1457 802.456 1455.72C792.167 1455.27 782.142 1454.46 771.909 1455.98C771.673 1462.75 771.581 1465.86 772.344 1472.48C772.562 1478.91 776.603 1537.22 794.355 1522.01C798.702 1518.29 786.483 1499.11 792.695 1494.32C795.465 1494.05 795.575 1494.15 798.229 1495.19C800.993 1499.31 801.918 1501.25 805.786 1504.35C806.347 1512.38 807.861 1525.66 801.155 1531.14L801.172 1532.12ZM263.842 280.737C276.828 281.77 287.557 276.531 300.16 277.465C334.321 279.996 365.898 296.389 390.363 319.918C394.385 323.785 400.761 328.035 402.352 333.248C403.348 336.511 406.637 338.124 409.463 339.617C410.677 341.993 410.881 342.53 411.624 345.1C424.639 353.473 441.223 400.69 444.528 416.231C446.557 425.77 441.113 424.412 450.413 434.787C456.231 436.932 468.649 435.499 475.871 436.237C513.95 440.125 553.039 440.974 591.32 441.799C658.03 443.549 724.781 442.91 791.445 439.886C818.652 438.724 844.599 435.681 872.094 434.967C913.606 431.491 955.016 426.896 996.28 421.187C1017.67 418.247 1035.61 415.241 1056.86 411.308C1086.74 406.747 1115.5 401.395 1144.58 392.33C1155.84 388.818 1177.17 386.038 1188.52 380.637C1204.94 372.832 1284.3 340.344 1280.12 317.26C1276.59 297.729 1234.61 275.282 1215.89 270.16C1206.23 266.513 1195.32 260.48 1185.61 257.485C1165.53 251.288 1145.1 245.753 1124.78 240.264C1089.56 230.751 1053.07 227.047 1017.4 219.519C1007.62 217.454 995.22 218.32 985.209 216.783C951.321 209.531 915.968 208.176 881.292 205.418C796.66 198.549 711.748 195.704 626.846 196.894C590.668 197.965 554.353 198.813 518.154 199.566C494.864 200.051 472.789 203.197 449.978 204.863C410.226 207.767 371.297 209.944 331.905 216.765C320.213 218.603 306.97 217.044 295.853 220.577C277.996 228.719 250.426 222.555 236.18 235.325C233.815 237.445 242.869 248.399 244.064 253.159C253.032 259.524 252.67 267.059 259.818 274.878C261.668 276.901 262.532 278.344 263.842 280.737Z"/><path fill="#FEFDFE" transform="scale(0.625762 0.625917)" d="M707.913 218.366C716.834 219.538 741.456 219.277 751.355 219.387L831.389 220.655C895.442 222.473 959.333 228.056 1022.73 237.374C1036.42 239.268 1050.6 240.245 1064.29 242.146C1071.65 242.857 1080.46 246.516 1087.53 247.223C1102.48 248.714 1115.27 252.908 1129.54 256.327C1157.08 262.469 1183.23 271.451 1207.71 285.663C1220.01 292.804 1222.43 301.942 1231.23 309.612C1231.86 316.221 1231.7 319.239 1231.26 325.936C1225.06 331.737 1224.37 336.104 1219.73 342.098C1211.95 350.622 1201.26 357.476 1191.7 363.867C1187.93 366.392 1182.97 363.417 1181.58 359.395C1181.66 351.941 1194.36 345.309 1200.57 340.381C1204.25 337.45 1207.65 334.197 1210.75 330.662C1218.8 321.469 1219.9 314.201 1209.89 306.283C1193.39 284.835 1128.37 269.315 1101.94 263.614C1064.79 255.605 1024.31 252.237 986.686 246.539C977.742 245.184 968.322 244.3 959.299 243.307C919.978 241.639 880.484 236.727 841.232 235.167C806.746 234.005 772.049 235.118 737.578 234.31C696.15 233.143 654.572 236.655 613.25 239.213C608.536 239.505 600.644 237.398 601.222 231.223C601.51 228.142 604.115 226.347 606.32 224.297C623.533 222.118 699.862 222.053 707.913 218.366Z"/><path fill="#FEFDFE" fill-opacity="0.83137256" transform="scale(0.625762 0.625917)" d="M623.369 1182.24C625.452 1188.95 623.436 1197.01 624.024 1203.88C624.2 1205.93 626.448 1209.55 627.131 1211.85C635.691 1240.74 631.484 1272.42 632.298 1302.24C632.924 1325.19 633.156 1348.06 631.24 1370.94C630.352 1380.42 626.487 1389.52 624.015 1398.35C622.654 1386.53 624.224 1363.16 624.669 1350.56C624.817 1346.36 627.728 1339.25 627.845 1334.46C628.096 1324.24 627.744 1313.87 627.532 1303.65C627.264 1290.72 627.095 1277.78 627.195 1264.84C627.236 1259.46 624.336 1251.37 624.326 1248.06C624.292 1236.66 621.84 1189.05 623.369 1182.24Z"/><path fill="#8F8D8E" transform="scale(0.625762 0.625917)" d="M231.138 341.196C243.185 340.533 253.092 355.474 250.081 366.675C248.95 370.881 243.089 372.922 243.012 378.187C242.954 382.078 241.142 382.102 238.185 382.686C234.571 382.738 230.766 382.546 227.14 382.432L217.046 371.761C216.087 362.367 215.727 357.146 219.225 348.499C223.181 346.039 227.152 343.605 231.138 341.196Z"/><path fill="#0A0909" transform="scale(0.625762 0.625917)" d="M228.809 346.683C239.354 345.706 238.378 350.912 244.233 358.666C244.054 365.048 245.555 372.548 239.278 375.076C223.141 377.838 226.996 373.248 224.396 359.555C225.981 355.852 227.512 350.637 228.809 346.683Z"/><path fill="#FEFDFE" fill-opacity="0.65098041" transform="scale(0.625762 0.625917)" d="M772.344 1472.48C779.237 1477.17 776.831 1486.87 782.33 1490.77C785.59 1493.08 804.297 1483.35 809.691 1513.29C810.541 1518.01 810.482 1523.38 807.649 1527.46C806.235 1529.5 803.575 1531.44 801.172 1532.12L801.155 1531.14C807.861 1525.66 806.347 1512.38 805.786 1504.35C801.918 1501.25 800.993 1499.31 798.229 1495.19C795.575 1494.15 795.465 1494.05 792.695 1494.32C786.483 1499.11 798.702 1518.29 794.355 1522.01C776.603 1537.22 772.562 1478.91 772.344 1472.48ZM791.938 1519.8C793.628 1516.74 793.943 1516.52 793.82 1513.17C791.78 1509.54 790.528 1509.48 786.5 1508.35C785.925 1508.19 785.349 1508.03 784.771 1507.88C782.535 1515.44 782.719 1519.53 791.938 1519.8Z"/><path fill="#FEFDFE" fill-opacity="0.39607844" transform="scale(0.625762 0.625917)" d="M784.771 1507.88C785.349 1508.03 785.925 1508.19 786.5 1508.35C790.528 1509.48 791.78 1509.54 793.82 1513.17C793.943 1516.52 793.628 1516.74 791.938 1519.8C782.719 1519.53 782.535 1515.44 784.771 1507.88Z"/><path fill="#FEFDFE" fill-opacity="0.38431373" transform="scale(0.625762 0.625917)" d="M578.741 1457.07C580.296 1469.3 573.298 1501.63 566.881 1511.19C564.98 1508.81 557.918 1507.73 554.857 1507.13C556.812 1502.95 559.11 1498.36 556.804 1494.08C554.431 1492.02 552.202 1492.21 548.966 1491.88C551.144 1491.05 556.397 1490.35 558.941 1489.93C559.538 1490.31 562.62 1492.28 562.979 1492.37C576.468 1495.55 575.919 1463.76 578.741 1457.07Z"/><path fill="#FEFDFE" fill-opacity="0.039215688" transform="scale(0.625762 0.625917)" d="M325.436 524.166C328.877 525.413 335.937 527.185 338.224 528.79C333.314 529.831 328.182 530.443 324.374 526.655L325.436 524.166Z"/><path fill="#FEFDFE" fill-opacity="0.047058824" transform="scale(0.625762 0.625917)" d="M554.663 1625.54C576.937 1626.56 593.52 1627.06 614.315 1636L588.572 1636C576.742 1623.63 562.059 1638.23 554.663 1625.54Z"/><path fill="#FEFDFE" fill-opacity="0.12941177" transform="scale(0.625762 0.625917)" d="M290.3 189.873C290.278 187.047 290.29 185.873 292.308 183.943C307.55 184.289 337.489 179.583 347.521 181.402C341.367 185.57 302.681 186.815 290.3 189.873Z"/></svg>