<?xml version="1.0" encoding="utf-8" ?><svg xmlns="http://www.w3.org/2000/svg" xmlns:xlink="http://www.w3.org/1999/xlink" width="1024" height="304" viewBox="0 0 1024 304"><path fill="#FEFEFE" transform="scale(0.770504 0.771574)" d="M38.8098 38.4612C42.1919 38.8364 53.18 36.3705 57.2737 35.7822C65.1656 34.6733 73.0884 33.797 81.0319 33.1543C126.178 29.5418 182.025 30.5097 225.679 44.8466C230.642 47.0149 237.215 48.8634 240.671 53.2593C251.224 66.6803 233.895 71.6419 226.108 77.9493C180.897 114.573 148.35 174.582 141.951 232.316C140.787 242.821 140.764 258.227 142.237 268.172L153.127 268.695C141.257 195.083 198.541 108.724 261.045 72.6576C276.47 63.8149 300.587 61.8419 314.919 73.2657C358.529 108.027 312.439 172.27 283.818 200.469C278.543 205.667 272.972 205.548 270.358 197.938C270.978 193.949 279.282 188.446 282.769 185.77C311.886 163.368 350.073 110.1 313.263 77.7619C296.961 63.44 269.191 76.3143 255.041 88.1897C203.509 131.437 156.984 200.127 164.303 270.196C175.381 272.223 202.624 281.073 183.766 297.366C182.517 298.445 176.583 300.972 174.918 301.625C203.95 351.417 258.148 354.01 305.872 327.702C331.492 312.762 351.937 290.858 368.454 266.454C371.038 261.666 372.702 255.851 375.225 251.088C381.758 238.755 403.069 208.535 417.115 228.674C417.861 229.744 418.59 232.036 419.108 233.281C422.3 240.964 419.613 248.866 420.969 256.605C421.157 257.674 423.625 259.004 424.664 259.162C436.902 261.16 446.797 259.932 457.775 255.097C461.794 245.031 465.896 235.262 470.192 225.321C476.996 209.578 485.484 194.425 492.435 178.821C491.808 177.02 491.094 174.724 490.237 173.065C478.266 172.424 465.366 172.648 453.324 172.646C431.945 172.634 410.567 172.974 389.2 173.665C380.988 173.984 373.98 174.867 366.004 176.641C365.022 176.859 363.354 176.163 362.45 175.666C361.324 174.372 361.009 174.097 360.891 172.421C367.062 166.488 478.563 172.248 494.223 167.59C502.898 165.01 506.873 151.133 511.779 144.098C515.413 138.887 530.486 117.188 535.469 115.162C539.155 115.422 540.682 117.298 540.752 120.83C538.063 126.874 527.797 140.155 523.666 146.249C518.171 154.354 514.776 160.137 510.102 168.835C522.279 168.833 592.862 169.316 598.484 174.848C599.016 175.371 598.947 175.986 599.03 176.693C598.217 177.622 597.084 178.811 595.625 178.593C570.399 174.823 544.812 175.718 519.387 175.308C505.321 175.081 504.295 177.135 498.213 189.293C468.97 247.739 435.852 309.56 435.743 376.651C435.719 389.278 445.345 382.96 446.967 390.756C444.302 396.617 430.832 390.155 429.835 382.806C424.948 346.784 440.844 294.745 454.891 262.045C450.261 263.312 445.886 264.338 441.046 264.444C435.66 264.562 423.189 261.478 419.035 263.444C411.503 267.009 405.854 292.804 381.134 298.771C369.032 295.178 366.825 290.047 367.279 277.723C338.767 314.263 313.965 339.668 266.34 348.697C222.638 356.983 187.437 343.017 165.07 304.127C140.305 311.219 94.5321 309.578 70.3355 298.154C63.8123 295.074 60.142 287.706 64.6221 281.339C72.7546 269.78 96.6758 269.264 109.538 268.419C116.101 214.47 98.7438 170.56 65.5378 128.105C53.6123 113.041 40.3197 99.1128 25.8296 86.4977C19.6003 81.0713 10.0558 74.106 4.54659 68.4107C-12.4751 50.814 27.6802 41.7464 37.373 39.3672L38.8098 38.4612ZM148.084 179.611C160.583 148.264 175.702 121.182 198.337 95.7305C202.415 91.1448 208.764 84.2703 213.533 80.4326C179.158 90.8568 116.482 90.7315 80.9487 88.2264C79.5074 91.9659 78.3881 93.4259 76.0993 96.6688C79.4588 101.914 92.0146 120.032 92.6619 125.092C90.2711 124.53 76.3528 101.432 73.8201 97.5159C60.1514 102.717 50.4894 94.1172 43.1776 83.3677C39.2193 82.4256 30.9202 80.1784 27.2456 79.634C86.6233 131.915 137.916 210.205 109.34 291.896C120.25 295.213 130.159 294.335 141.117 292.208C131.157 254.915 133.602 215.392 148.084 179.611ZM81.7516 82.2443C123.924 85.4517 173.706 84.618 215.036 73.8251C218.373 73.4549 237.156 65.1183 237.408 62.4157C238.836 47.0841 180.564 40.8466 173.823 40.1609C138.194 36.5361 105.325 36.635 70.0524 40.2636C61.9524 41.0969 50.3073 42.2345 43.1258 44.7814L40.5695 44.7837C33.3413 46.315 -8.28564 55.6155 12.7423 67.4104C20.2735 71.6348 32.1102 74.5855 40.5773 76.8657C39.3985 68.6129 39.1945 60.1221 47.7342 55.8176L48.9344 54.4557C49.7769 54.3751 50.6202 54.3036 51.4642 54.2413C67.6714 53.0581 80.6781 66.5945 81.7516 82.2443ZM104.293 274.851C94.3356 275.582 76.8609 276.292 69.8197 284.307C68.4748 285.837 68.3542 286.836 68.3978 288.737C70.3855 292.768 76.2022 294.516 80.2039 295.869C105.737 304.507 136.151 303.233 162.392 298.951C160.936 295.344 159.316 291.73 158.126 288.027C156.687 283.633 155.385 279.196 154.222 274.721L142.974 274.469L145.782 286.192L146.82 286.345L145.699 285.879L146.61 287.964C147.138 285.976 146.834 283.557 146.79 281.505L147.698 281.025C149.1 282.206 149.477 284.561 149.652 286.321C149.816 287.966 149.253 289.325 148.184 290.563C144.174 295.205 134.776 296.006 128.984 296.302C122.047 296.657 107.323 296.193 102.223 291.289C100.732 289.855 100.194 286.714 100.261 284.693C100.29 283.823 100.545 282.988 100.831 282.173L102.081 281.085L103.51 281.268C104.3 283.758 100.909 286.939 103.589 288.657C105.333 285.973 108.017 278.207 107.583 275.097C106.257 274.416 105.742 274.657 104.293 274.851ZM403.993 233.977C395.184 241.868 401.985 246.682 409.248 251.887L409.922 251.886C410.77 247.631 412.272 241.484 409.757 237.582C408.554 235.718 406.629 234.439 404.444 234.052C404.294 234.025 404.143 234 403.993 233.977ZM165.524 276.361C167.45 283.073 169.57 289.779 172.309 296.211C175.351 294.892 178.38 293.606 181.258 291.947C182.713 290.716 183.862 289.868 184.246 287.893C184.159 285.86 183.443 284.579 181.935 283.207C177.674 279.332 171.006 277.635 165.524 276.361ZM408.808 256.929C405.815 253.698 395.285 242.414 391.677 241.725C381.983 254.064 372.765 271.296 373.57 287.885C373.624 288.992 374.219 290.259 374.803 291.211C379.167 294.263 383.943 291.203 387.826 288.598C397.115 281.222 406.737 268.717 408.808 256.929Z"/><path fill="#FEFEFE" transform="scale(0.770504 0.771574)" d="M122.818 42.5619C143.95 40.049 203.526 43.3055 223.417 53.6615C225.52 54.8184 227.929 56.9445 228.462 59.3136C229.297 63.0283 224.675 67.9369 221.2 68.7564L220.593 68.0771C221.096 65.9723 223.462 64.56 225.258 63.1685C225.74 62.2144 225.927 61.3527 226.208 60.3278C225.923 59.2907 225.545 58.4588 224.795 57.6675C213.461 45.7024 154.844 44.3798 137.129 44.4393C128.845 44.4671 120.486 45.4328 112.231 45.2269L111.696 44.4377L112.258 43.5686C114.747 42.5343 119.916 42.65 122.818 42.5619Z"/><path fill="#FEFEFE" fill-opacity="0.98431373" transform="scale(0.770504 0.771574)" d="M40.5695 44.7837L43.1258 44.7814C44.3741 46.3646 48.6749 52.6159 48.9344 54.4557L47.7342 55.8176C45.3168 52.625 42.7355 48.2428 40.5695 44.7837Z"/><path fill="#FEFEFE" transform="scale(0.770504 0.771574)" d="M1197.44 114.472C1199.76 115.387 1200.83 115.927 1202.4 117.868C1202.73 119.141 1203.26 120.436 1202.47 121.678C1192.1 137.849 1181.01 151.467 1172.29 168.84C1197.65 168.826 1232.87 169.051 1258.69 173.763C1260.1 174.019 1260.53 175.343 1260.99 176.449L1260.38 177.61C1258.83 178.346 1257.26 178.411 1255.57 178.348C1251.05 178.179 1246.49 177.133 1241.96 176.732C1233.45 175.976 1224.84 175.779 1216.3 175.619C1209.05 175.484 1171.54 173.896 1168.22 177.168C1160.72 184.557 1143.47 222.364 1137.99 233.837C1119 273.596 1101.29 317.15 1098.2 361.501C1097.78 367.434 1096.8 375.261 1098.35 381.053C1099.79 386.44 1107.43 385.227 1109.22 390.297C1108.6 392.065 1108.31 392.245 1106.69 393.254C1105 393.625 1103.98 393.71 1102.33 393.103C1086.09 387.1 1090.32 367.344 1091.58 354.724C1094.43 325.932 1102.73 300.232 1112.67 273.479C1099.42 289.879 1082.31 303.549 1063.99 313.88C1058.43 317.017 1043.29 318.487 1040.62 311.088C1035.76 297.593 1047.68 284.847 1052.2 273.052C1053.33 270.101 1052.7 268.378 1049.59 267.23C1042.82 265.729 1034.3 269.425 1027.75 271.539C1015.7 275.432 1004.7 282.574 993.444 288.222C973.236 297.409 980.224 274.218 983.956 264.986C974.003 272.379 961.712 281.698 950.253 286.354C936.045 292.126 910.075 296.646 901.042 280.598C896.742 272.96 899.019 265.325 901.268 257.575C901.083 257.579 900.897 257.582 900.712 257.584C885.849 257.72 877.719 251.718 867.723 241.857C863.659 246.379 854.108 255.597 849.664 259.746C839.253 269.465 826.503 284.319 813.685 290.171C803.652 286.017 804.227 281.05 804.547 271.493C771.345 307.752 716.516 346.728 668.825 359.093C650.789 363.769 626.564 364.898 610.066 355.151C602.044 350.411 596.548 342.34 594.289 333.353C591.99 324.212 593.951 315.083 597.984 306.694C620.607 259.631 706.234 244.351 715.654 228.484C715.89 226.326 715.467 226.429 714.187 224.298C717.327 222.95 721.021 223.928 723.522 226.12C726.929 234.441 703.271 245.569 697.216 248.613C684.818 254.577 672.559 260.829 660.45 267.362C639.642 278.846 612.891 295.915 605.081 320.066C600.168 335.26 608.526 350.922 624.491 354.313C658.058 361.441 693.992 348.585 722.789 331.689C752.67 314.067 782.328 291.525 804.739 265.003C809.39 259.499 816.181 206.502 827.74 210.079C834.896 217.256 811.771 273.978 814.501 279.695C815.113 280.977 815.725 281.134 816.98 281.581C827.302 280.284 847.42 256.896 853.555 248.725C856.896 244.275 864.196 232.853 868.142 230.149C881.293 230.079 864.665 255.401 903.062 253.567C911.644 234.201 928.169 226.166 947.488 221.588C949.451 222.186 953.273 223.446 954.613 224.761C967.787 237.699 946.483 248.102 936.712 252.013C928.767 255.193 918.828 254.81 913.149 260.543C910.87 263.401 907.503 273.889 907.926 277.147C909.315 287.836 926.878 288.483 933.561 287.307C953.69 283.766 972.121 272.879 986.075 258.248C988.851 255.337 992.104 245.252 995.343 241.715C997.275 238.962 999.754 238.377 1002.52 240.667C1005.77 249.227 988.175 274.748 991.554 280.948C997.018 283.407 1005.38 275.941 1010.29 273.748C1020.82 269.048 1043.81 257.44 1054.92 264.162C1068.52 274.613 1049 295.381 1049.06 307.9C1050.54 312.535 1056.66 311.75 1059.42 310.628C1084.05 300.618 1106.54 277.494 1119.37 254.64C1125.39 243.914 1129.48 230.291 1134.91 219.12C1141.45 205.653 1148.02 192.325 1154.53 178.916C1153.9 177.041 1153.02 174.941 1152.28 173.076C1117.6 170.76 1079.95 173.765 1045.14 174.009C1038.71 174.055 1026.01 179.238 1022.64 173.535C1027.01 167.201 1109.63 170.082 1120.24 169.451C1128.86 168.939 1150.52 170.809 1158.26 167.238C1163.66 164.743 1173.65 142.181 1178.43 137.32C1184.52 129.59 1189.88 121.646 1197.44 114.472ZM925.744 247.967C936.493 245.155 945.82 242.008 951.605 231.712C951.85 231.276 951.935 231.253 951.983 230.729C946.774 232.366 924.76 241.614 925.744 247.967Z"/><path fill="#FEFEFE" transform="scale(0.770504 0.771574)" d="M1290.67 214.487C1306.68 210.406 1309.73 230.322 1300.48 239.372C1297.71 242.084 1293.83 245.747 1290.11 242.301C1289.3 239.011 1293.15 232.755 1294.65 229.922C1308.93 202.952 1238.92 232.308 1251.29 246.535C1254.12 249.841 1264.45 268.247 1269.17 267.753C1281.54 266.457 1315.39 248.375 1327.28 252.409C1327.17 254.004 1325.36 254.729 1323.77 255.13C1305.07 259.838 1275.8 266.083 1265.36 283.974C1262.26 289.285 1261.08 297.403 1258.35 303.167C1252.49 315.539 1240.59 331.359 1226.1 332.77C1218.32 333.351 1211.36 327.272 1211.48 319.295C1211.61 310.171 1216.83 304.645 1222.74 298.486C1226.69 294.631 1229.83 292.835 1234.43 289.498C1239.8 285.603 1253.73 279.661 1255.97 273.706C1257.26 270.266 1251.47 261.849 1249.54 258.801C1229.84 269.817 1210.59 260.636 1207.5 263.261C1195.9 273.137 1193.42 292.309 1169.03 298.789C1161.74 296.733 1157.94 294.17 1155.51 285.136C1150.62 266.975 1178.44 210.958 1200.95 224.795C1212.68 232.917 1207.7 244.71 1208.32 254.498C1209.07 266.441 1242.63 256.28 1247.19 255.391C1237.96 240.016 1239.86 236.28 1255.41 225.947C1266.35 218.683 1277.74 215.762 1290.67 214.487ZM1175.13 289.027C1186.07 280.988 1192.75 270.102 1197.02 257.349C1193.7 253.407 1184.55 242.545 1179.6 241.681C1170.97 253.304 1159.32 273.069 1161.49 288.294C1161.69 289.669 1162.13 290.601 1163.03 291.65C1164.9 292.814 1166.9 292.637 1168.97 292.137C1171.21 291.596 1173.19 290.237 1175.13 289.027ZM1221.64 326.878C1226.51 328.106 1229.47 327.498 1233.76 324.959C1244.32 318.714 1251.74 307.311 1254.68 295.528C1255.15 293.629 1256.41 289.313 1255.2 287.669C1255.17 287.632 1255.12 287.61 1255.09 287.581C1244.51 293.488 1223.49 306.449 1219.97 318.722C1219.36 320.842 1219.18 323.188 1220.35 325.156C1220.72 325.774 1221.18 326.333 1221.64 326.878ZM1196.97 251.634L1197.69 252.082C1199.8 246.471 1200.71 234.344 1192.18 234.063C1183.2 241.415 1189.57 246.486 1196.97 251.634Z"/><path fill="#FEFEFE" transform="scale(0.770504 0.771574)" d="M737.776 123.606C784.767 118.086 795.122 163.466 778.711 197.531C775.159 204.904 764.103 200.425 767.639 189.831C773.402 172.563 786.403 147.951 766.568 134.687C748.368 123.207 722.363 133.373 705.013 141.087C671.396 156.033 648.564 176.983 628.659 207.275C628.134 208.327 627.654 209.401 627.22 210.493C626.044 213.529 625.78 219.086 627.362 221.745C639.182 241.613 673.228 229.897 691.888 227.833C695.046 227.484 702.154 225.331 704.451 226.231C701.14 228.786 665.699 237.2 659.993 238.54C644.365 242.208 615.851 237.046 615.417 215.926C615.154 203.147 620.293 193.08 628.651 183.52C653.034 156.722 684.48 136.495 719.604 127.281C725.387 125.774 731.924 124.036 737.776 123.606Z"/><path fill="#FEFEFE" transform="scale(0.770504 0.771574)" d="M529.205 212.079C530.726 212.34 532.503 213.052 533.747 213.978C535.402 215.21 535.964 216.463 535.528 218.488C534.271 224.322 528.442 231.41 525.205 236.649C519.987 245.095 500.083 277.521 501.76 286.661C502.226 289.2 504.396 291.641 506.521 293.01C511.307 296.092 517.87 294.608 522.942 293.163C533.679 290.106 543.368 285.425 552.613 279.187C559.674 274.422 576.34 257.668 583.196 256.391C583.938 256.253 584.167 256.603 584.761 257.01C585.272 258.981 585.085 259.342 584.243 261.241C565.008 275.236 551.327 288.811 527.356 296.447C522.429 298.072 514.711 300.501 509.625 299.76C466.693 293.505 515.766 223.346 529.205 212.079Z"/><path fill="#FEFEFE" transform="scale(0.770504 0.771574)" d="M541.669 187.688C552.204 187.032 558.487 195.106 548.398 201.521C543.72 202.9 539.562 202.841 537.118 197.823C536.311 196.132 536.208 194.188 536.834 192.421C537.753 189.744 539.341 188.889 541.669 187.688Z"/><path fill="#FEFEFE" fill-opacity="0.98039216" transform="scale(0.770504 0.771574)" d="M37.373 39.3672C34.502 36.1903 14.7278 4.64516 14.4296 1.45947C18.0555 3.90248 37.3538 34.1547 38.8098 38.4612L37.373 39.3672Z"/></svg>