<?xml version="1.0" encoding="utf-8" ?><svg xmlns="http://www.w3.org/2000/svg" xmlns:xlink="http://www.w3.org/1999/xlink" width="1024" height="303" viewBox="0 0 1024 303"><path fill="#363536" transform="matrix(0.771084 0 0 0.770992 0 -6.10352e-05)" d="M738.385 123.48C745.347 122.664 753.37 123.633 759.962 125.827C769.139 128.883 776.997 135.034 781.297 143.807C788.041 157.565 786.26 176.601 781.46 190.684C780.161 194.495 778.495 199.411 774.637 201.302C773.098 201.592 772.009 201.437 770.669 200.576C768.899 199.44 766.802 197.279 766.557 195.142C765.372 184.805 780.871 166.658 776.328 148.482C774.791 142.333 770.73 137.317 765.302 134.123C754.812 127.949 740.389 129.048 729.003 132.029C688.709 142.577 649.121 172.445 628.099 208.371C626.722 211.062 625.785 214.488 626.255 217.515C626.917 221.787 630.144 225.725 633.543 228.21C637.838 231.351 643.111 232.846 648.365 233.242C662.169 234.281 692.344 227.792 707.227 225.527C691.432 230.783 669.43 238.144 653.054 239.47C642.987 240.285 630.912 238.263 623.041 231.514C618.56 227.698 615.812 222.233 615.421 216.36C614.503 204.273 620.736 192.561 628.43 183.66C651.606 156.845 685.192 136.466 719.318 127.332C725.517 125.673 731.964 123.939 738.385 123.48Z"/><path fill="#363536" transform="matrix(0.771084 0 0 0.770992 0 -6.10352e-05)" d="M528.693 212.461C530.68 212.45 532.613 213.011 534.175 214.266C535.512 215.339 536.012 216.96 535.593 218.604C534.049 224.662 527.922 232.249 524.61 237.621C519.634 245.692 500.281 277.692 501.544 286.386C501.866 288.607 503.949 290.872 505.689 292.19C510.866 296.11 517.716 294.733 523.471 293.066C533.895 290.048 543.316 285.397 552.327 279.386C559.68 274.482 576.512 257.32 583.855 256.293L584.761 257.111C584.93 259.01 584.858 260.052 583.798 261.666C564.745 275.388 550.421 288.533 527.503 296.412C522.224 298.227 516.538 299.994 510.909 299.88C505.366 299.768 500.417 297.589 496.596 293.57C493.346 290.149 491.766 285.801 491.925 281.095C492.094 276.104 493.876 271.313 495.458 266.631C502.145 246.847 513.336 226.847 528.693 212.461Z"/><path fill="#363536" transform="matrix(0.771084 0 0 0.770992 0 -6.10352e-05)" d="M542.716 187.524C544.231 187.418 545.915 187.371 547.385 187.793C549.51 188.402 551.603 190.11 552.571 192.104C553.354 193.748 553.412 195.645 552.731 197.334C551.6 200.133 549.263 201.064 546.688 202.166C544.911 202.389 542.798 202.626 541.118 201.876C539.19 201.015 537.583 199.233 536.856 197.257C536.164 195.379 536.316 193.454 537.165 191.654C538.354 189.134 540.271 188.405 542.716 187.524Z"/><path fill="#363536" transform="matrix(0.771084 0 0 0.770992 0 -6.10352e-05)" d="M38.9223 37.8536C45.7032 37.1651 52.9562 35.6442 59.8053 34.6894C70.5107 33.2439 81.2653 32.1898 92.0476 31.5292C127.043 29.2441 207.26 30.2411 238.684 50.9709C240.871 52.4138 243.395 56.1319 243.498 58.8675C243.607 61.7521 242.688 64.7248 240.634 66.8767C236.472 71.2365 230.221 74.1921 225.259 77.6435C219.88 81.3845 215.967 84.9487 211.439 89.6016C169.415 132.79 137.844 196.135 140.872 257.455C141.038 260.816 141.392 264.469 141.72 267.837C145.414 267.978 149.365 268.054 153.023 268.415C151.395 256.016 150.761 246.591 151.935 234.136C155.24 199.049 176.434 156.62 197.662 129.132C214.889 106.825 252.255 69.2985 282.067 65.7453C294.554 64.0093 306.389 66.7305 316.402 74.554C324.999 81.2595 330.774 90.7293 331.896 102.035C335.786 141.219 307.059 176.045 281.654 202.528C277.479 208.467 266.221 198.965 271.821 194.853C303.284 171.745 350.578 119.545 316.25 80.4672C310.114 73.482 298.284 70.1139 289.185 71.7508C268.341 75.5005 249.67 91.1376 235.493 105.858C211.217 131.065 189.793 159.332 176.771 192.016C168.943 212.006 162.833 234.712 163.216 256.164C163.34 260.721 163.663 265.27 164.187 269.798C175.659 271.978 202.162 280.981 183.322 297.033C182.046 298.12 176.189 300.602 174.536 301.221C176.792 305.002 179.028 308.732 181.612 312.306C211.11 353.1 267.527 350.71 307.519 326.653C324.166 316.456 339.033 303.605 351.532 288.61C363.195 274.621 370.229 265.188 377.599 248.58C381.522 239.741 398.828 218.722 410.14 222.142C423.533 226.553 421.976 247.583 421.698 256.632C421.532 262.025 450.222 259.936 453.036 257.378C453.398 257.062 457.865 255.756 458.47 255.591C470.073 227.423 480.052 206.399 493.474 178.888C492.919 177.45 491.843 174.429 491.14 173.21C478.788 172.335 465.923 172.598 453.501 172.579C431.503 172.548 409.506 172.958 387.524 173.807C379.975 174.172 373.715 175.441 366.337 176.566C365.238 176.734 363.851 175.927 362.951 175.237C362.327 174.234 361.607 173.348 361.723 172.182C372.124 166.108 469.944 171.293 487.778 169.114C493.964 168.358 496.376 169.629 500.672 163.76C507.015 155.091 527.822 116.078 538.279 115.712C540.792 116.73 539.919 116.17 541.781 118.471C542.221 120.237 541.791 121.931 540.744 123.405C530.02 138.503 519.504 152.238 511.255 168.934C523.995 168.91 592.804 168.673 599.54 175.593C600.169 176.239 600.131 176.411 600.163 177.277C599.154 178.226 597.102 178.574 595.763 178.396C569.343 174.874 542.643 175.518 516.044 175.504C507.049 175.499 505.418 177.158 501.529 184.868C472.063 243.285 439.39 303.794 436.677 370.652C435.855 390.899 443.196 381.787 447.81 389.457C447.782 390.96 447.873 391.689 447.127 393L441.411 393C425.833 386.763 429.052 369.799 430.388 356.112C433.596 323.252 444.237 292.741 455.913 262.1C444.427 265.235 436.235 264.58 424.647 263.103C415.604 261.95 412.775 274.819 407.389 280.867C401.492 287.488 391.821 298.679 382.145 298.17C368.692 297.463 368.166 286.507 368.344 276.184C351.679 297.826 335.475 317.577 311.671 331.692C285.987 346.921 249.257 356.017 219.869 348.237C194.052 341.403 178.055 326.237 164.883 303.824C148.217 308.456 64.5535 312.182 62.5451 288.017C62.2953 284.721 63.3809 281.463 65.5577 278.976C73.6292 269.764 97.3869 268.803 109.245 267.93C119.048 192.187 75.7826 129.03 21.1084 82.0833C14.4178 76.3383 3.75071 69.7328 0 61.9928L0 57.9866C0.127226 57.6884 0.265857 57.3952 0.415586 57.1077C6.73029 44.9446 24.2272 42.2961 36.5577 38.4421L38.9223 37.8536ZM108.823 291.586C119.893 294.177 129.707 294.218 140.757 291.503C130.504 254.98 133.521 212.275 148.43 177.283C162.825 141.206 183.975 105.949 213.038 79.7514C177.838 89.8791 118.393 91.5214 81.9891 87.5543C80.4369 90.9963 78.741 93.8734 76.3299 96.7788C78.7523 100.632 93.0592 121.829 92.7149 124.461C87.1402 121.458 78.1968 104.214 74.195 97.963C67.7501 100.084 62.081 100.213 55.8725 97.1151C49.4261 93.899 44.8584 88.2137 41.1614 82.1867C36.3955 81.2566 31.5265 79.6145 26.7676 78.9408C72.0242 118.128 112.22 172.544 116.599 234.102C118.024 254.133 115.396 272.654 108.823 291.586ZM388.862 288.644C398.961 280.512 406.33 269.858 409.898 257.341C406.245 252.692 398.286 243.665 392.79 241.598C383.768 253.14 372.712 272.025 374.6 287.315C374.797 288.915 375.201 290.538 376.556 291.554C377.944 292.595 379.764 292.493 381.383 292.198C384.054 291.712 386.615 290.113 388.862 288.644ZM39.1244 44.1981C30.7707 46.3407 12.045 49.7989 7.52687 57.5509C6.89299 58.6385 6.64394 59.9204 6.96554 61.1507C7.60181 63.585 9.8571 65.4067 11.9801 66.5519C14.4482 67.8652 17.004 69.0064 19.6293 69.9675C25.7671 72.5659 32.4014 74.0527 38.8333 75.7579C37.9945 69.4595 37.8429 63.3844 41.9042 58.0906C43.1624 56.4505 44.6306 54.9851 46.1724 53.6133C44.6635 51.1983 41.9706 45.4402 39.5246 44.2302L39.1244 44.1981ZM172.225 295.752C175.227 294.32 178.424 293.002 181.246 291.245C182.623 289.908 183.55 289.036 183.793 287.03C183.448 284.618 182.414 283.239 180.485 281.812C176.361 278.761 170.456 277.031 165.453 276.084C167.308 282.725 169.15 289.55 172.225 295.752ZM144.243 281.572C144.827 283.903 145.021 284.65 146.109 286.861L146.699 286.54C146.847 284.018 146.676 283.432 146.004 281.099C147.771 281.199 148.281 281.554 149.638 282.67C151.472 289.349 142.292 294.361 136.834 295.089C127.783 296.296 93.642 298.369 101.044 281.352L102.456 280.818C102.733 282.177 102.998 286.372 103.138 287.959L103.65 287.884C105.226 283.166 106.535 279.033 107.826 274.23C99.7443 274.45 68.8088 276.546 67.6768 286.917C68.3444 289.42 70.2515 290.928 72.4489 292.084C95.7247 304.329 137.73 303.074 162.231 298.351C158.266 289.662 156.551 283.73 154.128 274.455L142.855 273.828L144.243 281.572ZM409.875 251.718L410.853 251.883C411.753 247.605 413.376 241.909 410.876 237.92C409.553 235.806 407.681 234.619 405.367 233.831C403.286 235.624 400.94 237.4 400.784 240.388C400.67 242.595 401.925 244.659 403.404 246.205C405.321 248.209 407.702 249.984 409.875 251.718ZM48.4905 52.7877C56.1843 51.6134 62.8238 52.6639 69.2133 57.3894C77.3865 63.4341 80.856 72.0701 82.8495 81.6773C114.997 84.0212 148.312 84.2206 180.277 79.6758C192.998 78.2295 227.443 73.0911 236.234 62.4691C237.012 61.5282 237.254 60.5818 237.371 59.3913C236.702 56.6975 234.918 55.4077 232.654 54.054C203.772 36.7789 133.154 35.9991 98.9026 37.2396C80.1703 38.3925 61.0265 39.4936 42.6635 43.6353L48.4905 52.7877Z"/><path fill="#363536" transform="matrix(0.771084 0 0 0.770992 0 -6.10352e-05)" d="M122.009 41.7738C145.214 40.0397 204.069 41.644 223.045 52.8811C225.174 54.1419 227.439 55.9329 228.014 58.4684C228.427 60.2849 227.83 62.0086 226.848 63.528C225.351 65.8465 223.311 67.4956 220.572 68.0829L219.776 67.547C220.636 65.5284 222.072 64.7994 223.792 63.5023C224.593 62.6211 225.128 61.5525 225.708 60.5207C225.74 59.1808 225.464 58.2226 224.622 57.1545C215.544 45.6344 153.182 43.5197 136.797 43.6231C129.112 43.6717 118.955 45.3391 111.829 44.4301L111.204 43.3882C113.6 41.4036 118.887 41.8734 122.009 41.7738Z"/><path fill="white" transform="matrix(0.771084 0 0 0.770992 0 -6.10352e-05)" d="M42.1316 63.752C42.2491 63.8022 42.3677 63.8499 42.4841 63.9025C44.3054 64.7255 44.8476 65.6618 45.5413 67.4026C45.4408 69.4277 44.786 70.5746 43.726 72.2268C41.8276 71.3524 41.1833 70.5543 40.3031 68.7504C40.2693 66.66 41.0643 65.4509 42.1316 63.752Z"/><path transform="matrix(0.771084 0 0 0.770992 0 -6.10352e-05)" d="M144.243 281.572L146.004 281.099C146.676 283.432 146.847 284.018 146.699 286.54L146.109 286.861C145.021 284.65 144.827 283.903 144.243 281.572Z"/><path fill="#363536" transform="matrix(0.771084 0 0 0.770992 0 -6.10352e-05)" d="M1154.49 178.577C1153.85 176.953 1153.17 174.128 1151.54 173.31C1140.16 171.676 1127.73 172.544 1116.23 172.55C1093.2 172.563 1069.85 172.49 1046.86 173.931C1040.51 174.329 1033.24 176.423 1027.3 176.541C1025.89 176.57 1024.94 176.103 1023.84 175.262C1023.19 173.966 1022.83 173.627 1023.09 172.17C1027.04 169.623 1036.69 170.436 1041.54 170.253C1064.54 169.383 1087.34 169.268 1110.36 169.336C1123.27 169.375 1141.32 170.904 1153.65 168.326C1156.06 167.822 1158.95 167.126 1160.77 165.358C1165.52 160.751 1168.85 152.24 1172.34 146.462C1175.64 140.981 1192.83 114.788 1199.34 115.407C1200.81 116.118 1201.95 116.848 1202.54 118.44C1203.06 119.804 1202.8 121.259 1202.15 122.525C1199.52 127.638 1195.22 132.689 1191.87 137.397C1184.59 147.627 1177.73 157.64 1172.18 168.946C1195.42 168.886 1218.24 169.428 1241.41 171.478C1246.13 171.896 1252.54 171.767 1257 173.087C1258.37 173.492 1259.67 174.407 1260.67 175.405C1261.23 175.955 1261.21 176.331 1261.37 177.068C1259.89 178.231 1259.07 178.217 1257.22 178.234C1249.36 178.305 1241.12 176.733 1233.23 176.233C1223.3 175.603 1174.62 173.597 1168.4 176.946C1163.59 179.535 1157.04 195.797 1154.23 201.341C1130.22 248.657 1105.36 298.824 1099.06 352.186C1098.34 358.288 1095.63 378.599 1099.58 383.584C1102.07 386.734 1109.41 385.627 1108.78 391.023C1108.7 391.686 1108.35 392.395 1108.08 393L1102.24 393C1086.89 386.252 1090.11 370.08 1091.39 356.2C1094.09 326.93 1103 299.988 1113.03 272.608C1104.07 285.445 1049.59 338.763 1039.63 306.43C1034.83 298.088 1058.03 271.782 1050.72 267.766C1042.55 263.272 1013.07 277.348 1005.74 281.695C980.25 296.796 975.588 292.471 983.665 265.188C974.238 272.261 965.903 278.586 954.641 284.416C936.191 293.967 895.767 298.89 898.947 266.938C899.208 264.307 900.483 260.177 901.267 257.472C885.487 257.49 878.835 252.927 867.752 241.974C859.879 249.608 822.411 289.548 813.693 289.381C811.446 289.338 809.362 288.708 807.764 287.068C803.906 283.11 804.469 276.359 804.538 271.288C766.722 310.575 700.206 361.211 643.873 362.227C629.456 362.487 614.948 361.099 604.011 350.528C597.278 343.982 593.442 335.015 593.359 325.624C592.61 267.356 708.922 243.983 716.074 227.616C715.814 225.523 715.29 225.462 713.231 225.206L712.941 224.472C717.377 222.82 723.081 223.11 723.898 228.87C722.719 236.953 695.871 249.241 688.464 252.967C665.09 264.727 641.018 276.077 622.002 294.529C609.131 306.195 596.298 327.579 608.398 343.929C613.571 350.918 622.086 354.57 630.56 355.55C669.547 360.059 704.958 343.485 737.054 322.952C762.364 306.76 784.262 287.155 805.16 265.503C807.101 256.966 817.991 214.511 824.056 210.56C824.952 209.976 825.541 210.115 826.554 210.147C828.023 211.02 828.845 211.848 829.3 213.538C831.123 220.302 820.599 253.323 818.081 262.337C816.803 266.913 814.626 272.275 814.557 276.999C814.531 278.758 814.828 279.46 815.946 280.759C817.72 281.537 818.936 281.448 820.735 280.741C831.054 276.685 848.491 255.685 855.078 246.645C858.524 241.914 862.018 235.225 866.341 231.386C867.714 230.166 869.178 229.822 870.954 230.096C879.65 235.571 867.23 254.98 903.065 253.506C910.183 238.899 922.579 229.185 937.777 223.925C942.21 222.391 947.557 220.979 952.035 223.144C955.115 224.634 957.254 227.524 958.281 230.741C959.023 233.064 958.753 235.441 957.654 237.602C953.905 244.97 941.352 250.682 933.954 252.922C925.82 255.385 916.022 255.076 911.541 263.421C909.731 266.793 907.264 274.788 908.361 278.489C909.271 281.56 912.244 284.065 915.002 285.496C923.881 290.103 935.904 287.455 944.98 284.499C958.538 280.084 981.994 267.104 988.489 254.274C990.735 249.839 993.393 242.134 997.801 239.646C999.693 239.483 1000.04 239.414 1001.69 240.303C1003.25 243.051 1002.62 246.162 1001.81 249.058C999.721 256.476 990.126 274.399 990.869 280.69C992.47 281.652 993.734 281.818 995.591 281.344C1000.66 280.051 1006.06 276.175 1010.75 273.753C1020.75 268.589 1043.62 257.641 1054.74 263.573C1056.86 264.7 1058.23 266.591 1058.87 268.876C1062.49 281.679 1046.94 301.803 1049.06 308.647C1049.25 309.27 1050.5 310.44 1051.04 310.775C1052.93 311.93 1055.15 311.706 1057.2 311.139C1081.5 304.394 1107.02 276.712 1118.91 255.402C1125.39 243.8 1129.73 230.642 1135.24 218.519C1141.35 205.078 1148.66 192.122 1154.49 178.577ZM926.186 247.976C937.296 244.822 944.893 241.588 951.697 231.755L951.066 230.935C944.296 233.261 929.297 239.743 925.988 246.469C925.833 246.785 925.78 247.156 925.752 247.503L926.186 247.976Z"/><path fill="#363536" transform="matrix(0.771084 0 0 0.770992 0 -6.10352e-05)" d="M1248.26 255.323C1236.18 237.902 1246.61 231.522 1262.19 222.661C1272.48 217.355 1303.82 206.159 1306.96 224.159C1308.1 230.727 1298.45 248.63 1291.15 242.182C1289.13 235.905 1297.07 231.023 1297.93 224.859C1298.36 221.739 1295.9 218.786 1292.74 218.905C1279.34 219.413 1255.5 228.262 1250.91 241.883C1249.88 244.962 1263.51 261.977 1265.4 265.098C1269.39 271.575 1282.17 263.932 1287.36 262.371C1299.89 258.212 1314.79 251.536 1328 251.563L1328 254.235C1310.31 257.92 1271.6 268.003 1265.3 286.101C1261.48 298.532 1259.32 304.617 1252.08 315.406C1245.17 325.694 1225.01 342.027 1214.94 327.01C1202.37 308.265 1236.91 287.999 1249.99 280.641C1261.52 274.149 1256.49 268.012 1250.43 258.728C1235.05 268.207 1224.55 262.756 1208.96 263.265C1205.66 263.373 1201.05 272.478 1198.89 275.74C1192.35 285.658 1176.15 304.522 1163.11 296.055C1148.56 286.609 1160.35 255.231 1168.25 244.182C1175.39 234.999 1188.18 215.095 1201.69 224.62C1213.53 232.966 1208.46 244.651 1209.65 254.372C1211.1 266.272 1240.65 257.199 1248.26 255.323ZM1176.67 288.807C1186.99 280.552 1194.05 270.037 1197.99 257.408C1194.05 252.465 1186.69 244.289 1180.99 241.542C1171.53 252.608 1161.28 271.695 1162.53 286.715C1162.68 288.577 1163.05 290.215 1164.54 291.462C1165.52 292.277 1167.19 292.471 1168.41 292.349C1171.47 292.046 1174.13 290.415 1176.67 288.807ZM1222.68 326.784C1227.29 328.083 1230.3 327.519 1234.46 325.162C1244.95 319.224 1252.47 307.806 1255.57 296.297C1256.26 293.74 1257.53 289.67 1256.38 287.266C1245.67 293.888 1223.74 306.631 1220.81 319.394C1220.33 321.496 1220.37 323.381 1221.54 325.262C1221.88 325.802 1222.25 326.311 1222.68 326.784ZM1197.83 251.715L1198.66 251.91C1200.28 248.163 1200.84 242.97 1199.33 239.096C1198.43 236.787 1196.77 235.248 1194.52 234.287C1194.11 234.11 1193.69 233.97 1193.26 233.848C1191.23 235.645 1188.93 237.446 1188.76 240.385C1188.63 242.535 1189.9 244.675 1191.34 246.185C1193.26 248.203 1195.66 249.959 1197.83 251.715Z"/><path fill="#363536" fill-opacity="0.98823529" transform="matrix(0.771084 0 0 0.770992 0 -6.10352e-05)" d="M13.7531 0L15.0623 0C20.8363 9.07758 34.429 29.1053 38.9223 37.8536L36.5577 38.4421C29.4155 27.2066 20.4915 13.6428 13.7151 1.89834C13.7301 1.14548 13.7428 0.512702 13.7531 0Z"/></svg>